<?xml version="1.0" encoding="utf-8" standalone="no"?>
<!DOCTYPE svg PUBLIC "-//W3C//DTD SVG 1.1//EN"
  "http://www.w3.org/Graphics/SVG/1.1/DTD/svg11.dtd">
<svg xmlns:xlink="http://www.w3.org/1999/xlink" width="1008.2pt" height="412.109158pt" viewBox="0 0 1008.2 412.109158" xmlns="http://www.w3.org/2000/svg" version="1.1">
 <metadata>
  <rdf:RDF xmlns:dc="http://purl.org/dc/elements/1.1/" xmlns:cc="http://creativecommons.org/ns#" xmlns:rdf="http://www.w3.org/1999/02/22-rdf-syntax-ns#">
   <cc:Work>
    <dc:type rdf:resource="http://purl.org/dc/dcmitype/StillImage"/>
    <dc:date>2024-03-12T22:02:51.388225</dc:date>
    <dc:format>image/svg+xml</dc:format>
    <dc:creator>
     <cc:Agent>
      <dc:title>Matplotlib v3.8.0, https://matplotlib.org/</dc:title>
     </cc:Agent>
    </dc:creator>
   </cc:Work>
  </rdf:RDF>
 </metadata>
 <defs>
  <style type="text/css">*{stroke-linejoin: round; stroke-linecap: butt}</style>
 </defs>
 <g id="figure_1">
  <g id="patch_1">
   <path d="M 0 412.109158 
L 1008.2 412.109158 
L 1008.2 0 
L 0 0 
z
" style="fill: #0d0d0d"/>
  </g>
  <g id="axes_1">
   <g id="patch_2">
    <path d="M 46.965625 354.958125 
L 883.965625 354.958125 
L 883.965625 22.318125 
L 46.965625 22.318125 
z
" style="fill: #0d0d0d"/>
   </g>
   <g id="matplotlib.axis_1">
    <g id="xtick_1">
     <g id="line2d_1">
      <defs>
       <path id="me1454c0687" d="M 0 0 
L 0 3.5 
" style="stroke: #ffffff; stroke-width: 0.8"/>
      </defs>
      <g>
       <use xlink:href="#me1454c0687" x="85.01108" y="354.958125" style="fill: #ffffff; stroke: #ffffff; stroke-width: 0.8"/>
      </g>
     </g>
     <g id="text_1">
      <!-- 2018-01 -->
      <g style="fill: #ffffff" transform="translate(68.298279 389.429971) rotate(-30) scale(0.1 -0.1)">
       <defs>
        <path id="DejaVuSans-32" d="M 1228 531 
L 3431 531 
L 3431 0 
L 469 0 
L 469 531 
Q 828 903 1448 1529 
Q 2069 2156 2228 2338 
Q 2531 2678 2651 2914 
Q 2772 3150 2772 3378 
Q 2772 3750 2511 3984 
Q 2250 4219 1831 4219 
Q 1534 4219 1204 4116 
Q 875 4013 500 3803 
L 500 4441 
Q 881 4594 1212 4672 
Q 1544 4750 1819 4750 
Q 2544 4750 2975 4387 
Q 3406 4025 3406 3419 
Q 3406 3131 3298 2873 
Q 3191 2616 2906 2266 
Q 2828 2175 2409 1742 
Q 1991 1309 1228 531 
z
" transform="scale(0.015625)"/>
        <path id="DejaVuSans-30" d="M 2034 4250 
Q 1547 4250 1301 3770 
Q 1056 3291 1056 2328 
Q 1056 1369 1301 889 
Q 1547 409 2034 409 
Q 2525 409 2770 889 
Q 3016 1369 3016 2328 
Q 3016 3291 2770 3770 
Q 2525 4250 2034 4250 
z
M 2034 4750 
Q 2819 4750 3233 4129 
Q 3647 3509 3647 2328 
Q 3647 1150 3233 529 
Q 2819 -91 2034 -91 
Q 1250 -91 836 529 
Q 422 1150 422 2328 
Q 422 3509 836 4129 
Q 1250 4750 2034 4750 
z
" transform="scale(0.015625)"/>
        <path id="DejaVuSans-31" d="M 794 531 
L 1825 531 
L 1825 4091 
L 703 3866 
L 703 4441 
L 1819 4666 
L 2450 4666 
L 2450 531 
L 3481 531 
L 3481 0 
L 794 0 
L 794 531 
z
" transform="scale(0.015625)"/>
        <path id="DejaVuSans-38" d="M 2034 2216 
Q 1584 2216 1326 1975 
Q 1069 1734 1069 1313 
Q 1069 891 1326 650 
Q 1584 409 2034 409 
Q 2484 409 2743 651 
Q 3003 894 3003 1313 
Q 3003 1734 2745 1975 
Q 2488 2216 2034 2216 
z
M 1403 2484 
Q 997 2584 770 2862 
Q 544 3141 544 3541 
Q 544 4100 942 4425 
Q 1341 4750 2034 4750 
Q 2731 4750 3128 4425 
Q 3525 4100 3525 3541 
Q 3525 3141 3298 2862 
Q 3072 2584 2669 2484 
Q 3125 2378 3379 2068 
Q 3634 1759 3634 1313 
Q 3634 634 3220 271 
Q 2806 -91 2034 -91 
Q 1263 -91 848 271 
Q 434 634 434 1313 
Q 434 1759 690 2068 
Q 947 2378 1403 2484 
z
M 1172 3481 
Q 1172 3119 1398 2916 
Q 1625 2713 2034 2713 
Q 2441 2713 2670 2916 
Q 2900 3119 2900 3481 
Q 2900 3844 2670 4047 
Q 2441 4250 2034 4250 
Q 1625 4250 1398 4047 
Q 1172 3844 1172 3481 
z
" transform="scale(0.015625)"/>
        <path id="DejaVuSans-2d" d="M 313 2009 
L 1997 2009 
L 1997 1497 
L 313 1497 
L 313 2009 
z
" transform="scale(0.015625)"/>
       </defs>
       <use xlink:href="#DejaVuSans-32"/>
       <use xlink:href="#DejaVuSans-30" x="63.623047"/>
       <use xlink:href="#DejaVuSans-31" x="127.246094"/>
       <use xlink:href="#DejaVuSans-38" x="190.869141"/>
       <use xlink:href="#DejaVuSans-2d" x="254.492188"/>
       <use xlink:href="#DejaVuSans-30" x="290.576172"/>
       <use xlink:href="#DejaVuSans-31" x="354.199219"/>
      </g>
     </g>
    </g>
    <g id="xtick_2">
     <g id="line2d_2">
      <g>
       <use xlink:href="#me1454c0687" x="208.345245" y="354.958125" style="fill: #ffffff; stroke: #ffffff; stroke-width: 0.8"/>
      </g>
     </g>
     <g id="text_2">
      <!-- 2018-03 -->
      <g style="fill: #ffffff" transform="translate(191.632444 389.429971) rotate(-30) scale(0.1 -0.1)">
       <defs>
        <path id="DejaVuSans-33" d="M 2597 2516 
Q 3050 2419 3304 2112 
Q 3559 1806 3559 1356 
Q 3559 666 3084 287 
Q 2609 -91 1734 -91 
Q 1441 -91 1130 -33 
Q 819 25 488 141 
L 488 750 
Q 750 597 1062 519 
Q 1375 441 1716 441 
Q 2309 441 2620 675 
Q 2931 909 2931 1356 
Q 2931 1769 2642 2001 
Q 2353 2234 1838 2234 
L 1294 2234 
L 1294 2753 
L 1863 2753 
Q 2328 2753 2575 2939 
Q 2822 3125 2822 3475 
Q 2822 3834 2567 4026 
Q 2313 4219 1838 4219 
Q 1578 4219 1281 4162 
Q 984 4106 628 3988 
L 628 4550 
Q 988 4650 1302 4700 
Q 1616 4750 1894 4750 
Q 2613 4750 3031 4423 
Q 3450 4097 3450 3541 
Q 3450 3153 3228 2886 
Q 3006 2619 2597 2516 
z
" transform="scale(0.015625)"/>
       </defs>
       <use xlink:href="#DejaVuSans-32"/>
       <use xlink:href="#DejaVuSans-30" x="63.623047"/>
       <use xlink:href="#DejaVuSans-31" x="127.246094"/>
       <use xlink:href="#DejaVuSans-38" x="190.869141"/>
       <use xlink:href="#DejaVuSans-2d" x="254.492188"/>
       <use xlink:href="#DejaVuSans-30" x="290.576172"/>
       <use xlink:href="#DejaVuSans-33" x="354.199219"/>
      </g>
     </g>
    </g>
    <g id="xtick_3">
     <g id="line2d_3">
      <g>
       <use xlink:href="#me1454c0687" x="335.86023" y="354.958125" style="fill: #ffffff; stroke: #ffffff; stroke-width: 0.8"/>
      </g>
     </g>
     <g id="text_3">
      <!-- 2018-05 -->
      <g style="fill: #ffffff" transform="translate(319.147429 389.429971) rotate(-30) scale(0.1 -0.1)">
       <defs>
        <path id="DejaVuSans-35" d="M 691 4666 
L 3169 4666 
L 3169 4134 
L 1269 4134 
L 1269 2991 
Q 1406 3038 1543 3061 
Q 1681 3084 1819 3084 
Q 2600 3084 3056 2656 
Q 3513 2228 3513 1497 
Q 3513 744 3044 326 
Q 2575 -91 1722 -91 
Q 1428 -91 1123 -41 
Q 819 9 494 109 
L 494 744 
Q 775 591 1075 516 
Q 1375 441 1709 441 
Q 2250 441 2565 725 
Q 2881 1009 2881 1497 
Q 2881 1984 2565 2268 
Q 2250 2553 1709 2553 
Q 1456 2553 1204 2497 
Q 953 2441 691 2322 
L 691 4666 
z
" transform="scale(0.015625)"/>
       </defs>
       <use xlink:href="#DejaVuSans-32"/>
       <use xlink:href="#DejaVuSans-30" x="63.623047"/>
       <use xlink:href="#DejaVuSans-31" x="127.246094"/>
       <use xlink:href="#DejaVuSans-38" x="190.869141"/>
       <use xlink:href="#DejaVuSans-2d" x="254.492188"/>
       <use xlink:href="#DejaVuSans-30" x="290.576172"/>
       <use xlink:href="#DejaVuSans-35" x="354.199219"/>
      </g>
     </g>
    </g>
    <g id="xtick_4">
     <g id="line2d_4">
      <g>
       <use xlink:href="#me1454c0687" x="463.375215" y="354.958125" style="fill: #ffffff; stroke: #ffffff; stroke-width: 0.8"/>
      </g>
     </g>
     <g id="text_4">
      <!-- 2018-07 -->
      <g style="fill: #ffffff" transform="translate(446.662414 389.429971) rotate(-30) scale(0.1 -0.1)">
       <defs>
        <path id="DejaVuSans-37" d="M 525 4666 
L 3525 4666 
L 3525 4397 
L 1831 0 
L 1172 0 
L 2766 4134 
L 525 4134 
L 525 4666 
z
" transform="scale(0.015625)"/>
       </defs>
       <use xlink:href="#DejaVuSans-32"/>
       <use xlink:href="#DejaVuSans-30" x="63.623047"/>
       <use xlink:href="#DejaVuSans-31" x="127.246094"/>
       <use xlink:href="#DejaVuSans-38" x="190.869141"/>
       <use xlink:href="#DejaVuSans-2d" x="254.492188"/>
       <use xlink:href="#DejaVuSans-30" x="290.576172"/>
       <use xlink:href="#DejaVuSans-37" x="354.199219"/>
      </g>
     </g>
    </g>
    <g id="xtick_5">
     <g id="line2d_5">
      <g>
       <use xlink:href="#me1454c0687" x="592.98061" y="354.958125" style="fill: #ffffff; stroke: #ffffff; stroke-width: 0.8"/>
      </g>
     </g>
     <g id="text_5">
      <!-- 2018-09 -->
      <g style="fill: #ffffff" transform="translate(576.267809 389.429971) rotate(-30) scale(0.1 -0.1)">
       <defs>
        <path id="DejaVuSans-39" d="M 703 97 
L 703 672 
Q 941 559 1184 500 
Q 1428 441 1663 441 
Q 2288 441 2617 861 
Q 2947 1281 2994 2138 
Q 2813 1869 2534 1725 
Q 2256 1581 1919 1581 
Q 1219 1581 811 2004 
Q 403 2428 403 3163 
Q 403 3881 828 4315 
Q 1253 4750 1959 4750 
Q 2769 4750 3195 4129 
Q 3622 3509 3622 2328 
Q 3622 1225 3098 567 
Q 2575 -91 1691 -91 
Q 1453 -91 1209 -44 
Q 966 3 703 97 
z
M 1959 2075 
Q 2384 2075 2632 2365 
Q 2881 2656 2881 3163 
Q 2881 3666 2632 3958 
Q 2384 4250 1959 4250 
Q 1534 4250 1286 3958 
Q 1038 3666 1038 3163 
Q 1038 2656 1286 2365 
Q 1534 2075 1959 2075 
z
" transform="scale(0.015625)"/>
       </defs>
       <use xlink:href="#DejaVuSans-32"/>
       <use xlink:href="#DejaVuSans-30" x="63.623047"/>
       <use xlink:href="#DejaVuSans-31" x="127.246094"/>
       <use xlink:href="#DejaVuSans-38" x="190.869141"/>
       <use xlink:href="#DejaVuSans-2d" x="254.492188"/>
       <use xlink:href="#DejaVuSans-30" x="290.576172"/>
       <use xlink:href="#DejaVuSans-39" x="354.199219"/>
      </g>
     </g>
    </g>
    <g id="xtick_6">
     <g id="line2d_6">
      <g>
       <use xlink:href="#me1454c0687" x="720.495595" y="354.958125" style="fill: #ffffff; stroke: #ffffff; stroke-width: 0.8"/>
      </g>
     </g>
     <g id="text_6">
      <!-- 2018-11 -->
      <g style="fill: #ffffff" transform="translate(703.782794 389.429971) rotate(-30) scale(0.1 -0.1)">
       <use xlink:href="#DejaVuSans-32"/>
       <use xlink:href="#DejaVuSans-30" x="63.623047"/>
       <use xlink:href="#DejaVuSans-31" x="127.246094"/>
       <use xlink:href="#DejaVuSans-38" x="190.869141"/>
       <use xlink:href="#DejaVuSans-2d" x="254.492188"/>
       <use xlink:href="#DejaVuSans-31" x="290.576172"/>
       <use xlink:href="#DejaVuSans-31" x="354.199219"/>
      </g>
     </g>
    </g>
    <g id="xtick_7">
     <g id="line2d_7">
      <g>
       <use xlink:href="#me1454c0687" x="848.01058" y="354.958125" style="fill: #ffffff; stroke: #ffffff; stroke-width: 0.8"/>
      </g>
     </g>
     <g id="text_7">
      <!-- 2019-01 -->
      <g style="fill: #ffffff" transform="translate(831.297779 389.429971) rotate(-30) scale(0.1 -0.1)">
       <use xlink:href="#DejaVuSans-32"/>
       <use xlink:href="#DejaVuSans-30" x="63.623047"/>
       <use xlink:href="#DejaVuSans-31" x="127.246094"/>
       <use xlink:href="#DejaVuSans-39" x="190.869141"/>
       <use xlink:href="#DejaVuSans-2d" x="254.492188"/>
       <use xlink:href="#DejaVuSans-30" x="290.576172"/>
       <use xlink:href="#DejaVuSans-31" x="354.199219"/>
      </g>
     </g>
    </g>
    <g id="text_8">
     <!-- Date -->
     <g style="fill: #ffffff" transform="translate(453.514844 402.829471) scale(0.1 -0.1)">
      <defs>
       <path id="DejaVuSans-44" d="M 1259 4147 
L 1259 519 
L 2022 519 
Q 2988 519 3436 956 
Q 3884 1394 3884 2338 
Q 3884 3275 3436 3711 
Q 2988 4147 2022 4147 
L 1259 4147 
z
M 628 4666 
L 1925 4666 
Q 3281 4666 3915 4102 
Q 4550 3538 4550 2338 
Q 4550 1131 3912 565 
Q 3275 0 1925 0 
L 628 0 
L 628 4666 
z
" transform="scale(0.015625)"/>
       <path id="DejaVuSans-61" d="M 2194 1759 
Q 1497 1759 1228 1600 
Q 959 1441 959 1056 
Q 959 750 1161 570 
Q 1363 391 1709 391 
Q 2188 391 2477 730 
Q 2766 1069 2766 1631 
L 2766 1759 
L 2194 1759 
z
M 3341 1997 
L 3341 0 
L 2766 0 
L 2766 531 
Q 2569 213 2275 61 
Q 1981 -91 1556 -91 
Q 1019 -91 701 211 
Q 384 513 384 1019 
Q 384 1609 779 1909 
Q 1175 2209 1959 2209 
L 2766 2209 
L 2766 2266 
Q 2766 2663 2505 2880 
Q 2244 3097 1772 3097 
Q 1472 3097 1187 3025 
Q 903 2953 641 2809 
L 641 3341 
Q 956 3463 1253 3523 
Q 1550 3584 1831 3584 
Q 2591 3584 2966 3190 
Q 3341 2797 3341 1997 
z
" transform="scale(0.015625)"/>
       <path id="DejaVuSans-74" d="M 1172 4494 
L 1172 3500 
L 2356 3500 
L 2356 3053 
L 1172 3053 
L 1172 1153 
Q 1172 725 1289 603 
Q 1406 481 1766 481 
L 2356 481 
L 2356 0 
L 1766 0 
Q 1100 0 847 248 
Q 594 497 594 1153 
L 594 3053 
L 172 3053 
L 172 3500 
L 594 3500 
L 594 4494 
L 1172 4494 
z
" transform="scale(0.015625)"/>
       <path id="DejaVuSans-65" d="M 3597 1894 
L 3597 1613 
L 953 1613 
Q 991 1019 1311 708 
Q 1631 397 2203 397 
Q 2534 397 2845 478 
Q 3156 559 3463 722 
L 3463 178 
Q 3153 47 2828 -22 
Q 2503 -91 2169 -91 
Q 1331 -91 842 396 
Q 353 884 353 1716 
Q 353 2575 817 3079 
Q 1281 3584 2069 3584 
Q 2775 3584 3186 3129 
Q 3597 2675 3597 1894 
z
M 3022 2063 
Q 3016 2534 2758 2815 
Q 2500 3097 2075 3097 
Q 1594 3097 1305 2825 
Q 1016 2553 972 2059 
L 3022 2063 
z
" transform="scale(0.015625)"/>
      </defs>
      <use xlink:href="#DejaVuSans-44"/>
      <use xlink:href="#DejaVuSans-61" x="77.001953"/>
      <use xlink:href="#DejaVuSans-74" x="138.28125"/>
      <use xlink:href="#DejaVuSans-65" x="177.490234"/>
     </g>
    </g>
   </g>
   <g id="matplotlib.axis_2">
    <g id="ytick_1">
     <g id="line2d_8">
      <defs>
       <path id="md0284f5d65" d="M 0 0 
L -3.5 0 
" style="stroke: #ffffff; stroke-width: 0.8"/>
      </defs>
      <g>
       <use xlink:href="#md0284f5d65" x="46.965625" y="344.728691" style="fill: #ffffff; stroke: #ffffff; stroke-width: 0.8"/>
      </g>
     </g>
     <g id="text_9">
      <!-- 100 -->
      <g style="fill: #ffffff" transform="translate(20.878125 348.52791) scale(0.1 -0.1)">
       <use xlink:href="#DejaVuSans-31"/>
       <use xlink:href="#DejaVuSans-30" x="63.623047"/>
       <use xlink:href="#DejaVuSans-30" x="127.246094"/>
      </g>
     </g>
    </g>
    <g id="ytick_2">
     <g id="line2d_9">
      <g>
       <use xlink:href="#md0284f5d65" x="46.965625" y="303.973974" style="fill: #ffffff; stroke: #ffffff; stroke-width: 0.8"/>
      </g>
     </g>
     <g id="text_10">
      <!-- 200 -->
      <g style="fill: #ffffff" transform="translate(20.878125 307.773193) scale(0.1 -0.1)">
       <use xlink:href="#DejaVuSans-32"/>
       <use xlink:href="#DejaVuSans-30" x="63.623047"/>
       <use xlink:href="#DejaVuSans-30" x="127.246094"/>
      </g>
     </g>
    </g>
    <g id="ytick_3">
     <g id="line2d_10">
      <g>
       <use xlink:href="#md0284f5d65" x="46.965625" y="263.219257" style="fill: #ffffff; stroke: #ffffff; stroke-width: 0.8"/>
      </g>
     </g>
     <g id="text_11">
      <!-- 300 -->
      <g style="fill: #ffffff" transform="translate(20.878125 267.018476) scale(0.1 -0.1)">
       <use xlink:href="#DejaVuSans-33"/>
       <use xlink:href="#DejaVuSans-30" x="63.623047"/>
       <use xlink:href="#DejaVuSans-30" x="127.246094"/>
      </g>
     </g>
    </g>
    <g id="ytick_4">
     <g id="line2d_11">
      <g>
       <use xlink:href="#md0284f5d65" x="46.965625" y="222.46454" style="fill: #ffffff; stroke: #ffffff; stroke-width: 0.8"/>
      </g>
     </g>
     <g id="text_12">
      <!-- 400 -->
      <g style="fill: #ffffff" transform="translate(20.878125 226.263759) scale(0.1 -0.1)">
       <defs>
        <path id="DejaVuSans-34" d="M 2419 4116 
L 825 1625 
L 2419 1625 
L 2419 4116 
z
M 2253 4666 
L 3047 4666 
L 3047 1625 
L 3713 1625 
L 3713 1100 
L 3047 1100 
L 3047 0 
L 2419 0 
L 2419 1100 
L 313 1100 
L 313 1709 
L 2253 4666 
z
" transform="scale(0.015625)"/>
       </defs>
       <use xlink:href="#DejaVuSans-34"/>
       <use xlink:href="#DejaVuSans-30" x="63.623047"/>
       <use xlink:href="#DejaVuSans-30" x="127.246094"/>
      </g>
     </g>
    </g>
    <g id="ytick_5">
     <g id="line2d_12">
      <g>
       <use xlink:href="#md0284f5d65" x="46.965625" y="181.709823" style="fill: #ffffff; stroke: #ffffff; stroke-width: 0.8"/>
      </g>
     </g>
     <g id="text_13">
      <!-- 500 -->
      <g style="fill: #ffffff" transform="translate(20.878125 185.509042) scale(0.1 -0.1)">
       <use xlink:href="#DejaVuSans-35"/>
       <use xlink:href="#DejaVuSans-30" x="63.623047"/>
       <use xlink:href="#DejaVuSans-30" x="127.246094"/>
      </g>
     </g>
    </g>
    <g id="ytick_6">
     <g id="line2d_13">
      <g>
       <use xlink:href="#md0284f5d65" x="46.965625" y="140.955106" style="fill: #ffffff; stroke: #ffffff; stroke-width: 0.8"/>
      </g>
     </g>
     <g id="text_14">
      <!-- 600 -->
      <g style="fill: #ffffff" transform="translate(20.878125 144.754325) scale(0.1 -0.1)">
       <defs>
        <path id="DejaVuSans-36" d="M 2113 2584 
Q 1688 2584 1439 2293 
Q 1191 2003 1191 1497 
Q 1191 994 1439 701 
Q 1688 409 2113 409 
Q 2538 409 2786 701 
Q 3034 994 3034 1497 
Q 3034 2003 2786 2293 
Q 2538 2584 2113 2584 
z
M 3366 4563 
L 3366 3988 
Q 3128 4100 2886 4159 
Q 2644 4219 2406 4219 
Q 1781 4219 1451 3797 
Q 1122 3375 1075 2522 
Q 1259 2794 1537 2939 
Q 1816 3084 2150 3084 
Q 2853 3084 3261 2657 
Q 3669 2231 3669 1497 
Q 3669 778 3244 343 
Q 2819 -91 2113 -91 
Q 1303 -91 875 529 
Q 447 1150 447 2328 
Q 447 3434 972 4092 
Q 1497 4750 2381 4750 
Q 2619 4750 2861 4703 
Q 3103 4656 3366 4563 
z
" transform="scale(0.015625)"/>
       </defs>
       <use xlink:href="#DejaVuSans-36"/>
       <use xlink:href="#DejaVuSans-30" x="63.623047"/>
       <use xlink:href="#DejaVuSans-30" x="127.246094"/>
      </g>
     </g>
    </g>
    <g id="ytick_7">
     <g id="line2d_14">
      <g>
       <use xlink:href="#md0284f5d65" x="46.965625" y="100.200389" style="fill: #ffffff; stroke: #ffffff; stroke-width: 0.8"/>
      </g>
     </g>
     <g id="text_15">
      <!-- 700 -->
      <g style="fill: #ffffff" transform="translate(20.878125 103.999608) scale(0.1 -0.1)">
       <use xlink:href="#DejaVuSans-37"/>
       <use xlink:href="#DejaVuSans-30" x="63.623047"/>
       <use xlink:href="#DejaVuSans-30" x="127.246094"/>
      </g>
     </g>
    </g>
    <g id="ytick_8">
     <g id="line2d_15">
      <g>
       <use xlink:href="#md0284f5d65" x="46.965625" y="59.445672" style="fill: #ffffff; stroke: #ffffff; stroke-width: 0.8"/>
      </g>
     </g>
     <g id="text_16">
      <!-- 800 -->
      <g style="fill: #ffffff" transform="translate(20.878125 63.244891) scale(0.1 -0.1)">
       <use xlink:href="#DejaVuSans-38"/>
       <use xlink:href="#DejaVuSans-30" x="63.623047"/>
       <use xlink:href="#DejaVuSans-30" x="127.246094"/>
      </g>
     </g>
    </g>
    <g id="text_17">
     <!-- Count -->
     <g style="fill: #ffffff" transform="translate(14.798438 203.486562) rotate(-90) scale(0.1 -0.1)">
      <defs>
       <path id="DejaVuSans-43" d="M 4122 4306 
L 4122 3641 
Q 3803 3938 3442 4084 
Q 3081 4231 2675 4231 
Q 1875 4231 1450 3742 
Q 1025 3253 1025 2328 
Q 1025 1406 1450 917 
Q 1875 428 2675 428 
Q 3081 428 3442 575 
Q 3803 722 4122 1019 
L 4122 359 
Q 3791 134 3420 21 
Q 3050 -91 2638 -91 
Q 1578 -91 968 557 
Q 359 1206 359 2328 
Q 359 3453 968 4101 
Q 1578 4750 2638 4750 
Q 3056 4750 3426 4639 
Q 3797 4528 4122 4306 
z
" transform="scale(0.015625)"/>
       <path id="DejaVuSans-6f" d="M 1959 3097 
Q 1497 3097 1228 2736 
Q 959 2375 959 1747 
Q 959 1119 1226 758 
Q 1494 397 1959 397 
Q 2419 397 2687 759 
Q 2956 1122 2956 1747 
Q 2956 2369 2687 2733 
Q 2419 3097 1959 3097 
z
M 1959 3584 
Q 2709 3584 3137 3096 
Q 3566 2609 3566 1747 
Q 3566 888 3137 398 
Q 2709 -91 1959 -91 
Q 1206 -91 779 398 
Q 353 888 353 1747 
Q 353 2609 779 3096 
Q 1206 3584 1959 3584 
z
" transform="scale(0.015625)"/>
       <path id="DejaVuSans-75" d="M 544 1381 
L 544 3500 
L 1119 3500 
L 1119 1403 
Q 1119 906 1312 657 
Q 1506 409 1894 409 
Q 2359 409 2629 706 
Q 2900 1003 2900 1516 
L 2900 3500 
L 3475 3500 
L 3475 0 
L 2900 0 
L 2900 538 
Q 2691 219 2414 64 
Q 2138 -91 1772 -91 
Q 1169 -91 856 284 
Q 544 659 544 1381 
z
M 1991 3584 
L 1991 3584 
z
" transform="scale(0.015625)"/>
       <path id="DejaVuSans-6e" d="M 3513 2113 
L 3513 0 
L 2938 0 
L 2938 2094 
Q 2938 2591 2744 2837 
Q 2550 3084 2163 3084 
Q 1697 3084 1428 2787 
Q 1159 2491 1159 1978 
L 1159 0 
L 581 0 
L 581 3500 
L 1159 3500 
L 1159 2956 
Q 1366 3272 1645 3428 
Q 1925 3584 2291 3584 
Q 2894 3584 3203 3211 
Q 3513 2838 3513 2113 
z
" transform="scale(0.015625)"/>
      </defs>
      <use xlink:href="#DejaVuSans-43"/>
      <use xlink:href="#DejaVuSans-6f" x="69.824219"/>
      <use xlink:href="#DejaVuSans-75" x="131.005859"/>
      <use xlink:href="#DejaVuSans-6e" x="194.384766"/>
      <use xlink:href="#DejaVuSans-74" x="257.763672"/>
     </g>
    </g>
   </g>
   <g id="line2d_16">
    <path d="M 85.01108 256.290955 
L 87.101489 227.762653 
L 89.191899 219.61171 
L 91.282308 306.826804 
L 93.372718 261.589068 
L 95.463127 266.072087 
L 97.553537 292.9702 
L 99.643947 254.660767 
L 101.734356 223.687182 
L 103.824766 207.385295 
L 105.915175 205.755106 
L 108.005585 233.875861 
L 110.095995 244.472087 
L 112.186404 265.66454 
L 114.276814 255.475861 
L 116.367223 213.90605 
L 118.457633 226.540012 
L 120.548043 219.61171 
L 122.638452 220.834351 
L 124.728862 232.245672 
L 126.819271 257.921144 
L 128.909681 211.053219 
L 131.000091 224.502276 
L 133.0905 212.683408 
L 135.18091 211.868314 
L 137.271319 222.056993 
L 139.361729 222.872087 
L 141.452138 244.472087 
L 143.542548 217.981521 
L 145.632958 216.75888 
L 147.723367 214.313597 
L 149.813777 221.649446 
L 151.904186 231.023031 
L 153.994596 259.143785 
L 156.085006 257.513597 
L 158.175415 228.577748 
L 160.265825 212.275861 
L 162.356234 230.207936 
L 164.446644 219.204163 
L 166.537054 231.430578 
L 168.627463 244.879634 
L 170.717873 265.256993 
L 172.808282 211.460767 
L 174.898692 214.313597 
L 176.989102 219.61171 
L 179.079511 214.721144 
L 181.169921 227.762653 
L 183.26033 259.95888 
L 185.35074 283.189068 
L 187.441149 245.694729 
L 189.531559 223.687182 
L 191.621969 195.566427 
L 193.712378 236.728691 
L 195.802788 227.762653 
L 197.893197 244.879634 
L 199.983607 264.849446 
L 202.074017 230.207936 
L 204.164426 241.21171 
L 206.254836 223.687182 
L 208.345245 231.430578 
L 210.435655 255.883408 
L 212.526065 251.400389 
L 214.616474 259.551333 
L 216.706884 223.279634 
L 218.797293 202.494729 
L 220.887703 273.407936 
L 222.978113 247.324917 
L 225.068522 222.872087 
L 227.158932 243.249446 
L 229.249341 246.102276 
L 231.339751 220.426804 
L 233.43016 237.136238 
L 235.52057 214.313597 
L 237.61098 232.245672 
L 239.701389 245.287182 
L 241.791799 237.136238 
L 243.882208 257.513597 
L 245.972618 224.909823 
L 248.063028 233.468314 
L 250.153437 287.26454 
L 252.243847 235.098502 
L 254.334256 232.653219 
L 256.424666 245.694729 
L 258.515076 265.66454 
L 260.605485 231.838125 
L 262.695895 215.943785 
L 264.786304 216.75888 
L 266.876714 223.279634 
L 268.967124 235.913597 
L 271.057533 241.619257 
L 273.147943 276.668314 
L 275.238352 233.468314 
L 277.328762 238.766427 
L 279.419171 222.872087 
L 281.509581 233.060767 
L 283.599991 240.396616 
L 285.6904 253.845672 
L 287.78081 271.777748 
L 289.871219 227.355106 
L 291.961629 223.279634 
L 294.052039 203.71737 
L 296.142448 233.060767 
L 298.232858 211.868314 
L 300.323267 235.50605 
L 302.413677 265.66454 
L 306.594496 212.275861 
L 308.684906 223.687182 
L 310.775315 224.909823 
L 312.865725 226.947559 
L 314.956134 244.472087 
L 317.046544 248.140012 
L 319.136954 208.607936 
L 321.227363 233.060767 
L 323.317773 218.796616 
L 325.408182 222.056993 
L 327.498592 215.128691 
L 329.589002 254.253219 
L 331.679411 253.030578 
L 333.769821 224.094729 
L 335.86023 219.61171 
L 337.95064 202.902276 
L 340.04105 212.275861 
L 342.131459 222.872087 
L 344.221869 226.132465 
L 346.312278 231.838125 
L 348.402688 216.351333 
L 350.493098 215.943785 
L 352.583507 226.132465 
L 354.673917 205.347559 
L 356.764326 228.577748 
L 358.854736 229.392842 
L 360.945145 270.147559 
L 363.035555 239.173974 
L 365.125965 238.35888 
L 367.216374 206.977748 
L 369.306784 192.713597 
L 371.397193 216.351333 
L 373.487603 246.91737 
L 375.578013 234.690955 
L 377.668422 209.423031 
L 379.758832 211.053219 
L 381.849241 196.381521 
L 383.939651 198.01171 
L 388.12047 226.132465 
L 390.21088 243.249446 
L 392.301289 262.81171 
L 394.391699 186.600389 
L 396.482109 192.713597 
L 398.572518 212.275861 
L 400.662928 224.502276 
L 402.753337 238.766427 
L 404.843747 245.287182 
L 406.934156 213.090955 
L 409.024566 218.389068 
L 411.114976 209.423031 
L 413.205385 217.981521 
L 415.295795 227.762653 
L 417.386204 231.430578 
L 419.476614 246.91737 
L 421.567024 225.31737 
L 423.657433 229.392842 
L 427.838252 195.973974 
L 429.928662 208.200389 
L 432.019072 223.687182 
L 434.109481 247.732465 
L 436.199891 185.377748 
L 438.2903 199.641899 
L 440.38071 198.419257 
L 442.47112 214.721144 
L 444.561529 224.909823 
L 446.651939 239.173974 
L 448.742348 238.766427 
L 450.832758 211.868314 
L 452.923167 213.090955 
L 455.013577 202.494729 
L 457.103987 223.687182 
L 459.194396 213.90605 
L 461.284806 221.649446 
L 463.375215 243.249446 
L 465.465625 229.800389 
L 467.556035 210.645672 
L 469.646444 255.068314 
L 471.736854 174.373974 
L 473.827263 210.238125 
L 475.917673 227.355106 
L 478.008083 247.732465 
L 480.098492 226.540012 
L 482.188902 211.460767 
L 484.279311 211.460767 
L 486.369721 223.687182 
L 488.46013 213.090955 
L 490.55054 225.31737 
L 492.64095 247.732465 
L 494.731359 205.755106 
L 496.821769 215.943785 
L 498.912178 184.9702 
L 501.002588 206.977748 
L 503.092998 223.687182 
L 505.183407 226.540012 
L 507.273817 261.181521 
L 509.364226 201.272087 
L 511.454636 204.940012 
L 513.545046 209.423031 
L 515.635455 217.981521 
L 517.725865 210.238125 
L 519.816274 231.023031 
L 521.906684 205.755106 
L 523.997094 191.490955 
L 526.087503 189.453219 
L 528.177913 200.86454 
L 530.268322 201.679634 
L 532.358732 224.094729 
L 534.449141 242.434351 
L 538.629961 218.389068 
L 540.72037 200.456993 
L 542.81078 197.196616 
L 544.901189 203.71737 
L 546.991599 218.389068 
L 549.082009 239.581521 
L 551.172418 248.547559 
L 553.262828 212.683408 
L 555.353237 200.049446 
L 557.443647 204.124917 
L 559.534057 215.536238 
L 561.624466 220.426804 
L 563.714876 227.762653 
L 565.805285 238.766427 
L 567.895695 198.826804 
L 569.986105 208.607936 
L 572.076514 220.834351 
L 574.166924 209.423031 
L 576.257333 207.792842 
L 578.347743 231.430578 
L 580.438152 229.800389 
L 582.528562 204.940012 
L 584.618972 200.86454 
L 586.709381 206.5702 
L 588.799791 210.238125 
L 590.8902 218.389068 
L 592.98061 218.796616 
L 595.07102 236.321144 
L 597.161429 244.06454 
L 599.251839 199.234351 
L 601.342248 220.019257 
L 603.432658 214.313597 
L 605.523068 223.687182 
L 607.613477 242.841899 
L 609.703887 251.807936 
L 611.794296 228.577748 
L 613.884706 220.019257 
L 615.975116 205.347559 
L 618.065525 211.868314 
L 620.155935 211.460767 
L 622.246344 235.913597 
L 624.336754 231.838125 
L 626.427163 199.234351 
L 628.517573 222.872087 
L 630.607983 208.200389 
L 632.698392 204.940012 
L 634.788802 228.1702 
L 636.879211 231.023031 
L 638.969621 250.992842 
L 641.060031 221.649446 
L 643.15044 229.800389 
L 645.24085 205.347559 
L 647.331259 208.200389 
L 649.421669 217.573974 
L 651.512079 228.577748 
L 653.602488 231.838125 
L 655.692898 193.936238 
L 657.783307 208.607936 
L 659.873717 209.015483 
L 661.964126 212.683408 
L 664.054536 213.090955 
L 666.144946 238.766427 
L 668.235355 230.207936 
L 670.325765 233.468314 
L 672.416174 199.641899 
L 674.506584 210.645672 
L 676.596994 215.128691 
L 678.687403 227.355106 
L 680.777813 237.951333 
L 682.868222 276.260767 
L 684.958632 211.053219 
L 687.049042 215.943785 
L 689.139451 217.573974 
L 691.229861 224.094729 
L 693.32027 232.245672 
L 695.41068 232.245672 
L 697.50109 256.698502 
L 699.591499 214.721144 
L 701.681909 221.649446 
L 703.772318 204.532465 
L 705.862728 212.275861 
L 710.043547 253.845672 
L 712.133957 232.653219 
L 714.224366 231.023031 
L 716.314776 204.940012 
L 718.405185 216.351333 
L 720.495595 174.781521 
L 722.586005 200.86454 
L 724.676414 238.35888 
L 728.857233 245.694729 
L 730.947643 228.985295 
L 733.038053 200.456993 
L 737.218872 231.023031 
L 739.309281 231.023031 
L 741.399691 242.434351 
L 743.490101 243.656993 
L 745.58051 243.656993 
L 747.67092 217.573974 
L 749.761329 266.479634 
L 751.851739 255.475861 
L 753.942148 227.762653 
L 756.032558 248.547559 
L 758.122968 201.272087 
L 760.213377 206.977748 
L 762.303787 214.313597 
L 764.394196 302.751333 
L 766.484606 258.328691 
L 768.575016 259.551333 
L 770.665425 259.143785 
L 772.755835 231.023031 
L 774.846244 214.721144 
L 776.936654 206.162653 
L 779.027064 196.381521 
L 781.117473 221.241899 
L 783.207883 239.173974 
L 785.298292 253.030578 
L 787.388702 204.124917 
L 789.479112 200.86454 
L 791.569521 225.31737 
L 793.659931 231.838125 
L 795.75034 237.136238 
L 797.84075 249.7702 
L 799.931159 244.472087 
L 802.021569 232.653219 
L 804.111979 199.641899 
L 806.202388 203.71737 
L 808.292798 206.5702 
L 810.383207 216.75888 
L 812.473617 220.426804 
L 814.564027 261.181521 
L 816.654436 217.166427 
L 818.744846 225.724917 
L 822.925665 227.355106 
L 825.016075 226.947559 
L 827.106484 219.61171 
L 831.287303 262.404163 
L 833.377713 296.638125 
L 835.468123 233.060767 
L 837.558532 225.724917 
L 839.648942 242.841899 
L 841.739351 242.434351 
L 843.829761 245.694729 
L 845.92017 246.509823 
L 845.92017 246.509823 
" clip-path="url(#pb5f07d57d5)" style="fill: none; stroke: #1f77b4; stroke-width: 1.5; stroke-linecap: square"/>
   </g>
   <g id="line2d_17">
    <path d="M 85.01108 161.740012 
L 87.101489 134.841899 
L 89.191899 122.207936 
L 91.282308 245.694729 
L 93.372718 163.777748 
L 95.463127 190.268314 
L 97.553537 198.01171 
L 99.643947 140.547559 
L 101.734356 108.75888 
L 103.824766 104.683408 
L 105.915175 99.792842 
L 108.005585 97.347559 
L 110.095995 105.498502 
L 112.186404 153.181521 
L 114.276814 136.879634 
L 116.367223 85.121144 
L 118.457633 104.683408 
L 120.548043 86.751333 
L 122.638452 84.30605 
L 124.728862 108.75888 
L 126.819271 105.90605 
L 128.909681 101.423031 
L 131.000091 72.894729 
L 133.0905 56.185295 
L 135.18091 85.121144 
L 137.271319 69.226804 
L 139.361729 79.007936 
L 141.452138 136.879634 
L 143.542548 101.015483 
L 145.632958 105.498502 
L 147.723367 88.381521 
L 149.813777 92.049446 
L 151.904186 97.755106 
L 153.994596 123.838125 
L 156.085006 152.366427 
L 158.175415 102.645672 
L 160.265825 101.830578 
L 162.356234 114.056993 
L 164.446644 98.5702 
L 166.537054 101.015483 
L 168.627463 128.728691 
L 170.717873 142.585295 
L 172.808282 98.162653 
L 174.898692 103.053219 
L 176.989102 93.272087 
L 179.079511 59.853219 
L 181.169921 81.453219 
L 183.26033 109.981521 
L 185.35074 149.10605 
L 187.441149 118.540012 
L 189.531559 68.004163 
L 191.621969 74.524917 
L 193.712378 85.936238 
L 195.802788 96.124917 
L 199.983607 136.06454 
L 202.074017 100.607936 
L 204.164426 110.796616 
L 206.254836 79.007936 
L 208.345245 63.928691 
L 210.435655 154.404163 
L 212.526065 137.694729 
L 214.616474 138.509823 
L 216.706884 111.61171 
L 218.797293 94.902276 
L 220.887703 191.490955 
L 222.978113 114.46454 
L 225.068522 90.419257 
L 227.158932 111.61171 
L 229.249341 135.656993 
L 231.339751 121.800389 
L 233.43016 130.35888 
L 235.52057 92.86454 
L 237.61098 93.272087 
L 239.701389 90.419257 
L 241.791799 106.721144 
L 243.882208 113.241899 
L 245.972618 105.498502 
L 248.063028 96.940012 
L 250.153437 183.340012 
L 252.243847 107.943785 
L 254.334256 88.381521 
L 256.424666 114.056993 
L 258.515076 111.61171 
L 260.605485 120.1702 
L 262.695895 114.056993 
L 264.786304 71.26454 
L 266.876714 96.532465 
L 268.967124 97.755106 
L 271.057533 111.204163 
L 273.147943 167.853219 
L 275.238352 127.913597 
L 277.328762 119.762653 
L 279.419171 102.238125 
L 281.509581 96.124917 
L 283.599991 109.166427 
L 285.6904 113.241899 
L 287.78081 149.513597 
L 289.871219 90.826804 
L 291.961629 106.721144 
L 294.052039 93.272087 
L 296.142448 65.966427 
L 298.232858 62.70605 
L 300.323267 80.638125 
L 302.413677 117.724917 
L 304.504087 129.136238 
L 306.594496 83.490955 
L 308.684906 60.668314 
L 310.775315 91.641899 
L 312.865725 77.785295 
L 314.956134 126.690955 
L 319.136954 95.71737 
L 321.227363 65.55888 
L 323.317773 95.309823 
L 325.408182 51.294729 
L 327.498592 82.268314 
L 329.589002 103.053219 
L 331.679411 131.989068 
L 333.769821 81.045672 
L 335.86023 84.30605 
L 337.95064 55.3702 
L 340.04105 87.973974 
L 342.131459 76.155106 
L 344.221869 104.683408 
L 346.312278 100.200389 
L 348.402688 93.679634 
L 350.493098 76.562653 
L 352.583507 76.9702 
L 354.673917 61.890955 
L 356.764326 59.038125 
L 358.854736 113.241899 
L 360.945145 146.660767 
L 363.035555 73.709823 
L 365.125965 107.943785 
L 367.216374 110.796616 
L 369.306784 90.419257 
L 371.397193 64.336238 
L 373.487603 153.996616 
L 375.578013 133.21171 
L 377.668422 94.087182 
L 379.758832 93.272087 
L 381.849241 67.189068 
L 383.939651 79.415483 
L 386.030061 85.121144 
L 388.12047 124.245672 
L 390.21088 123.023031 
L 392.301289 134.841899 
L 394.391699 38.660767 
L 396.482109 41.513597 
L 398.572518 81.453219 
L 400.662928 92.049446 
L 402.753337 105.90605 
L 404.843747 136.472087 
L 406.934156 107.128691 
L 409.024566 97.347559 
L 411.114976 65.151333 
L 413.205385 82.675861 
L 415.295795 77.377748 
L 417.386204 107.943785 
L 419.476614 126.283408 
L 421.567024 82.268314 
L 423.657433 71.672087 
L 425.747843 66.781521 
L 427.838252 88.789068 
L 429.928662 87.973974 
L 432.019072 108.75888 
L 434.109481 95.71737 
L 436.199891 81.860767 
L 438.2903 74.11737 
L 440.38071 46.81171 
L 442.47112 59.445672 
L 444.561529 82.268314 
L 446.651939 118.132465 
L 448.742348 136.879634 
L 450.832758 82.268314 
L 452.923167 84.30605 
L 455.013577 94.494729 
L 457.103987 93.679634 
L 459.194396 101.423031 
L 461.284806 139.732465 
L 463.375215 141.362653 
L 467.556035 86.751333 
L 469.646444 102.238125 
L 471.736854 37.438125 
L 473.827263 88.789068 
L 475.917673 105.498502 
L 478.008083 138.509823 
L 480.098492 88.381521 
L 482.188902 99.385295 
L 484.279311 90.419257 
L 486.369721 66.781521 
L 488.46013 72.487182 
L 490.55054 118.947559 
L 492.64095 91.641899 
L 494.731359 68.819257 
L 496.821769 91.234351 
L 498.912178 58.630578 
L 501.002588 83.083408 
L 503.092998 64.336238 
L 505.183407 89.196616 
L 507.273817 107.128691 
L 509.364226 82.268314 
L 511.454636 80.230578 
L 513.545046 89.196616 
L 515.635455 75.747559 
L 517.725865 93.679634 
L 519.816274 94.087182 
L 521.906684 74.932465 
L 523.997094 64.336238 
L 526.087503 74.932465 
L 528.177913 92.86454 
L 530.268322 63.521144 
L 534.449141 111.61171 
L 538.629961 77.377748 
L 540.72037 96.124917 
L 542.81078 79.007936 
L 544.901189 81.453219 
L 546.991599 75.340012 
L 549.082009 97.755106 
L 551.172418 95.71737 
L 553.262828 107.943785 
L 555.353237 91.641899 
L 557.443647 85.528691 
L 559.534057 72.487182 
L 561.624466 63.928691 
L 563.714876 127.50605 
L 567.895695 70.449446 
L 569.986105 79.823031 
L 572.076514 63.521144 
L 574.166924 89.196616 
L 576.257333 101.423031 
L 578.347743 109.166427 
L 580.438152 131.989068 
L 582.528562 94.494729 
L 584.618972 79.007936 
L 586.709381 71.26454 
L 588.799791 85.528691 
L 590.8902 98.5702 
L 592.98061 83.490955 
L 595.07102 118.947559 
L 597.161429 125.468314 
L 599.251839 37.845672 
L 601.342248 87.566427 
L 603.432658 103.460767 
L 605.523068 98.5702 
L 607.613477 107.536238 
L 609.703887 170.70605 
L 611.794296 146.253219 
L 613.884706 104.275861 
L 615.975116 72.079634 
L 618.065525 96.124917 
L 620.155935 82.268314 
L 622.246344 108.75888 
L 624.336754 115.279634 
L 626.427163 72.894729 
L 628.517573 87.566427 
L 630.607983 60.668314 
L 632.698392 67.596616 
L 634.788802 85.936238 
L 636.879211 111.61171 
L 638.969621 119.355106 
L 641.060031 107.943785 
L 643.15044 131.989068 
L 645.24085 116.909823 
L 647.331259 76.9702 
L 651.512079 100.200389 
L 653.602488 131.173974 
L 655.692898 108.75888 
L 657.783307 114.056993 
L 659.873717 89.604163 
L 661.964126 70.449446 
L 664.054536 97.347559 
L 666.144946 114.46454 
L 668.235355 118.947559 
L 670.325765 103.868314 
L 672.416174 97.347559 
L 674.506584 83.083408 
L 676.596994 103.053219 
L 678.687403 90.826804 
L 680.777813 120.577748 
L 682.868222 140.547559 
L 684.958632 117.31737 
L 687.049042 112.019257 
L 689.139451 94.902276 
L 691.229861 116.502276 
L 693.32027 102.645672 
L 695.41068 112.019257 
L 697.50109 145.438125 
L 699.591499 131.989068 
L 701.681909 111.204163 
L 703.772318 108.75888 
L 705.862728 120.1702 
L 707.953137 120.1702 
L 710.043547 151.143785 
L 712.133957 142.992842 
L 714.224366 77.785295 
L 716.314776 103.868314 
L 718.405185 80.638125 
L 720.495595 81.453219 
L 722.586005 73.302276 
L 724.676414 131.989068 
L 726.766824 149.921144 
L 728.857233 139.732465 
L 730.947643 145.438125 
L 733.038053 83.898502 
L 735.128462 79.007936 
L 737.218872 106.313597 
L 739.309281 116.909823 
L 741.399691 143.400389 
L 743.490101 109.573974 
L 745.58051 112.019257 
L 747.67092 94.494729 
L 749.761329 170.70605 
L 751.851739 134.026804 
L 753.942148 127.098502 
L 756.032558 138.509823 
L 758.122968 111.61171 
L 760.213377 107.128691 
L 762.303787 111.204163 
L 764.394196 256.698502 
L 766.484606 126.690955 
L 768.575016 150.328691 
L 770.665425 140.547559 
L 772.755835 120.1702 
L 774.846244 97.755106 
L 776.936654 102.645672 
L 779.027064 102.238125 
L 781.117473 114.46454 
L 783.207883 116.909823 
L 785.298292 155.219257 
L 787.388702 86.343785 
L 789.479112 112.019257 
L 791.569521 124.245672 
L 793.659931 93.679634 
L 795.75034 118.132465 
L 797.84075 110.389068 
L 799.931159 136.472087 
L 802.021569 123.023031 
L 804.111979 110.796616 
L 806.202388 106.721144 
L 808.292798 108.351333 
L 810.383207 107.536238 
L 812.473617 129.543785 
L 814.564027 160.924917 
L 816.654436 133.619257 
L 818.744846 109.166427 
L 820.835255 116.502276 
L 822.925665 114.872087 
L 825.016075 126.283408 
L 827.106484 135.656993 
L 829.196894 138.102276 
L 831.287303 167.445672 
L 833.377713 226.947559 
L 835.468123 139.732465 
L 837.558532 131.989068 
L 839.648942 136.879634 
L 841.739351 128.728691 
L 843.829761 173.966427 
L 845.92017 163.3702 
L 845.92017 163.3702 
" clip-path="url(#pb5f07d57d5)" style="fill: none; stroke: #ff7f0e; stroke-width: 1.5; stroke-linecap: square"/>
   </g>
   <g id="line2d_18">
    <path d="M 85.01108 323.943785 
L 87.101489 317.423031 
L 89.191899 303.15888 
L 91.282308 339.838125 
L 93.372718 317.423031 
L 95.463127 327.204163 
L 97.553537 324.75888 
L 99.643947 314.162653 
L 101.734356 307.234351 
L 103.824766 309.272087 
L 105.915175 320.683408 
L 108.005585 301.121144 
L 110.095995 317.015483 
L 112.186404 323.128691 
L 114.276814 332.502276 
L 116.367223 316.200389 
L 118.457633 319.460767 
L 120.548043 310.087182 
L 122.638452 314.977748 
L 124.728862 320.275861 
L 126.819271 312.124917 
L 128.909681 294.600389 
L 131.000091 295.823031 
L 133.0905 303.15888 
L 135.18091 304.381521 
L 137.271319 307.234351 
L 139.361729 316.200389 
L 141.452138 317.830578 
L 143.542548 310.902276 
L 145.632958 309.679634 
L 147.723367 310.494729 
L 149.813777 298.675861 
L 151.904186 313.755106 
L 153.994596 313.755106 
L 156.085006 320.275861 
L 158.175415 304.381521 
L 160.265825 303.973974 
L 162.356234 310.494729 
L 164.446644 314.162653 
L 166.537054 306.826804 
L 168.627463 314.977748 
L 170.717873 322.313597 
L 172.808282 309.272087 
L 174.898692 292.562653 
L 176.989102 311.309823 
L 179.079511 293.785295 
L 181.169921 301.936238 
L 183.26033 322.313597 
L 185.35074 314.977748 
L 187.441149 310.087182 
L 189.531559 298.268314 
L 191.621969 315.792842 
L 193.712378 314.162653 
L 195.802788 314.5702 
L 197.893197 328.426804 
L 199.983607 323.536238 
L 202.074017 293.377748 
L 204.164426 305.196616 
L 206.254836 288.487182 
L 208.345245 301.121144 
L 210.435655 314.977748 
L 212.526065 318.238125 
L 214.616474 320.683408 
L 216.706884 310.494729 
L 218.797293 290.11737 
L 220.887703 339.023031 
L 222.978113 304.381521 
L 225.068522 312.532465 
L 227.158932 330.872087 
L 229.249341 326.796616 
L 231.339751 303.973974 
L 233.43016 310.902276 
L 235.52057 301.528691 
L 237.61098 306.419257 
L 239.701389 307.641899 
L 241.791799 328.426804 
L 243.882208 324.351333 
L 245.972618 300.30605 
L 248.063028 312.532465 
L 250.153437 332.094729 
L 252.243847 303.973974 
L 254.334256 289.709823 
L 256.424666 320.275861 
L 258.515076 316.607936 
L 260.605485 298.268314 
L 262.695895 301.528691 
L 264.786304 302.751333 
L 266.876714 298.675861 
L 268.967124 309.272087 
L 271.057533 317.015483 
L 273.147943 318.645672 
L 275.238352 317.015483 
L 277.328762 316.607936 
L 279.419171 307.641899 
L 281.509581 315.792842 
L 283.599991 320.275861 
L 285.6904 318.238125 
L 287.78081 325.573974 
L 289.871219 306.01171 
L 291.961629 301.528691 
L 294.052039 301.936238 
L 296.142448 299.898502 
L 298.232858 299.898502 
L 300.323267 314.162653 
L 302.413677 317.830578 
L 304.504087 308.456993 
L 306.594496 302.343785 
L 308.684906 303.15888 
L 310.775315 302.343785 
L 312.865725 307.641899 
L 314.956134 321.090955 
L 317.046544 307.234351 
L 319.136954 299.898502 
L 321.227363 297.453219 
L 323.317773 302.343785 
L 325.408182 304.789068 
L 327.498592 290.11737 
L 329.589002 323.943785 
L 331.679411 315.792842 
L 333.769821 301.936238 
L 335.86023 295.415483 
L 337.95064 289.302276 
L 340.04105 295.823031 
L 342.131459 293.785295 
L 344.221869 304.381521 
L 346.312278 310.902276 
L 348.402688 290.11737 
L 350.493098 284.004163 
L 352.583507 295.007936 
L 354.673917 281.151333 
L 356.764326 294.192842 
L 358.854736 324.75888 
L 360.945145 321.090955 
L 363.035555 283.189068 
L 365.125965 302.751333 
L 367.216374 289.709823 
L 369.306784 290.524917 
L 371.397193 286.449446 
L 373.487603 322.313597 
L 375.578013 311.71737 
L 377.668422 284.41171 
L 379.758832 296.638125 
L 381.849241 290.932465 
L 383.939651 284.41171 
L 386.030061 288.487182 
L 388.12047 313.755106 
L 390.21088 322.313597 
L 392.301289 311.71737 
L 394.391699 287.26454 
L 396.482109 283.596616 
L 398.572518 282.373974 
L 400.662928 299.490955 
L 402.753337 310.087182 
L 404.843747 310.087182 
L 406.934156 292.155106 
L 409.024566 299.490955 
L 411.114976 294.600389 
L 413.205385 302.751333 
L 415.295795 308.86454 
L 417.386204 310.087182 
L 419.476614 309.272087 
L 421.567024 290.932465 
L 423.657433 298.675861 
L 425.747843 283.596616 
L 427.838252 301.121144 
L 429.928662 293.377748 
L 432.019072 307.641899 
L 434.109481 312.532465 
L 436.199891 301.528691 
L 438.2903 302.751333 
L 440.38071 288.079634 
L 442.47112 296.230578 
L 444.561529 293.377748 
L 446.651939 312.940012 
L 448.742348 315.385295 
L 452.923167 294.600389 
L 455.013577 300.30605 
L 457.103987 301.936238 
L 459.194396 300.30605 
L 461.284806 305.604163 
L 463.375215 311.71737 
L 465.465625 304.789068 
L 467.556035 292.562653 
L 469.646444 323.128691 
L 471.736854 282.781521 
L 473.827263 288.487182 
L 475.917673 305.604163 
L 478.008083 308.456993 
L 480.098492 303.566427 
L 482.188902 300.30605 
L 484.279311 299.490955 
L 486.369721 302.751333 
L 488.46013 295.415483 
L 490.55054 308.049446 
L 492.64095 306.01171 
L 494.731359 291.340012 
L 496.821769 300.30605 
L 498.912178 293.785295 
L 501.002588 292.9702 
L 503.092998 303.15888 
L 507.273817 307.234351 
L 509.364226 297.860767 
L 511.454636 292.9702 
L 513.545046 305.196616 
L 515.635455 303.973974 
L 517.725865 299.898502 
L 519.816274 306.419257 
L 521.906684 301.528691 
L 523.997094 297.045672 
L 526.087503 300.30605 
L 528.177913 285.226804 
L 530.268322 300.713597 
L 532.358732 310.902276 
L 534.449141 313.755106 
L 536.539551 307.641899 
L 538.629961 284.41171 
L 540.72037 296.638125 
L 542.81078 302.343785 
L 544.901189 292.155106 
L 546.991599 281.151333 
L 549.082009 316.607936 
L 551.172418 316.607936 
L 555.353237 294.192842 
L 557.443647 301.528691 
L 559.534057 285.226804 
L 561.624466 303.15888 
L 563.714876 308.049446 
L 565.805285 334.540012 
L 567.895695 299.083408 
L 569.986105 300.30605 
L 572.076514 296.230578 
L 574.166924 300.713597 
L 576.257333 301.121144 
L 578.347743 321.90605 
L 580.438152 316.607936 
L 582.528562 293.785295 
L 584.618972 302.751333 
L 586.709381 296.230578 
L 588.799791 278.298502 
L 590.8902 295.823031 
L 592.98061 310.902276 
L 595.07102 310.902276 
L 597.161429 317.015483 
L 599.251839 276.260767 
L 601.342248 287.672087 
L 603.432658 305.196616 
L 605.523068 302.343785 
L 607.613477 305.604163 
L 609.703887 316.607936 
L 611.794296 307.234351 
L 613.884706 296.638125 
L 615.975116 293.785295 
L 618.065525 307.641899 
L 620.155935 296.230578 
L 622.246344 312.532465 
L 624.336754 311.71737 
L 628.517573 280.336238 
L 630.607983 293.785295 
L 632.698392 293.377748 
L 634.788802 284.819257 
L 636.879211 310.902276 
L 638.969621 311.71737 
L 641.060031 302.343785 
L 643.15044 303.15888 
L 645.24085 280.336238 
L 647.331259 296.230578 
L 649.421669 295.415483 
L 651.512079 306.826804 
L 653.602488 303.566427 
L 655.692898 286.041899 
L 657.783307 291.340012 
L 659.873717 294.192842 
L 661.964126 299.083408 
L 664.054536 308.049446 
L 666.144946 312.532465 
L 668.235355 305.196616 
L 670.325765 303.973974 
L 672.416174 287.26454 
L 674.506584 295.823031 
L 676.596994 300.30605 
L 678.687403 301.936238 
L 680.777813 315.385295 
L 682.868222 324.75888 
L 684.958632 297.453219 
L 687.049042 300.30605 
L 689.139451 289.302276 
L 691.229861 307.641899 
L 693.32027 309.272087 
L 695.41068 314.162653 
L 697.50109 319.460767 
L 699.591499 302.751333 
L 701.681909 306.01171 
L 703.772318 295.007936 
L 705.862728 301.936238 
L 707.953137 299.490955 
L 710.043547 321.090955 
L 712.133957 325.166427 
L 714.224366 303.566427 
L 716.314776 295.415483 
L 718.405185 293.785295 
L 720.495595 284.004163 
L 722.586005 292.9702 
L 724.676414 322.313597 
L 726.766824 322.313597 
L 728.857233 314.162653 
L 730.947643 315.385295 
L 733.038053 288.894729 
L 735.128462 292.155106 
L 737.218872 299.083408 
L 739.309281 319.868314 
L 741.399691 315.792842 
L 743.490101 316.607936 
L 745.58051 319.053219 
L 747.67092 303.566427 
L 749.761329 323.943785 
L 751.851739 313.347559 
L 753.942148 321.90605 
L 756.032558 306.826804 
L 758.122968 297.453219 
L 760.213377 300.713597 
L 762.303787 311.309823 
L 764.394196 331.687182 
L 766.484606 320.275861 
L 768.575016 332.094729 
L 770.665425 318.645672 
L 772.755835 299.898502 
L 774.846244 307.234351 
L 776.936654 310.902276 
L 779.027064 299.490955 
L 781.117473 302.751333 
L 783.207883 314.977748 
L 785.298292 309.679634 
L 787.388702 306.419257 
L 789.479112 300.30605 
L 791.569521 303.973974 
L 793.659931 314.977748 
L 795.75034 299.490955 
L 797.84075 325.981521 
L 799.931159 324.351333 
L 802.021569 301.528691 
L 804.111979 312.124917 
L 806.202388 295.823031 
L 808.292798 308.049446 
L 810.383207 318.645672 
L 812.473617 313.755106 
L 814.564027 330.872087 
L 816.654436 306.01171 
L 818.744846 313.755106 
L 820.835255 303.973974 
L 822.925665 307.234351 
L 825.016075 301.936238 
L 829.196894 325.981521 
L 831.287303 315.385295 
L 833.377713 336.985295 
L 835.468123 308.049446 
L 837.558532 314.5702 
L 839.648942 320.275861 
L 841.739351 319.053219 
L 843.829761 325.166427 
L 845.92017 324.75888 
L 845.92017 324.75888 
" clip-path="url(#pb5f07d57d5)" style="fill: none; stroke: #2ca02c; stroke-width: 1.5; stroke-linecap: square"/>
   </g>
   <g id="patch_3">
    <path d="M 46.965625 354.958125 
L 46.965625 22.318125 
" style="fill: none; stroke: #ffffff; stroke-width: 0.8; stroke-linejoin: miter; stroke-linecap: square"/>
   </g>
   <g id="patch_4">
    <path d="M 883.965625 354.958125 
L 883.965625 22.318125 
" style="fill: none; stroke: #000000; stroke-width: 0.8; stroke-linejoin: miter; stroke-linecap: square"/>
   </g>
   <g id="patch_5">
    <path d="M 46.965625 354.958125 
L 883.965625 354.958125 
" style="fill: none; stroke: #ffffff; stroke-width: 0.8; stroke-linejoin: miter; stroke-linecap: square"/>
   </g>
   <g id="patch_6">
    <path d="M 46.965625 22.318125 
L 883.965625 22.318125 
" style="fill: none; stroke: #000000; stroke-width: 0.8; stroke-linejoin: miter; stroke-linecap: square"/>
   </g>
   <g id="text_18">
    <!-- NYC Crime Volume by Severity by Day in 2018 -->
    <g style="fill: #ffffff" transform="translate(325.932813 16.318125) scale(0.12 -0.12)">
     <defs>
      <path id="DejaVuSans-4e" d="M 628 4666 
L 1478 4666 
L 3547 763 
L 3547 4666 
L 4159 4666 
L 4159 0 
L 3309 0 
L 1241 3903 
L 1241 0 
L 628 0 
L 628 4666 
z
" transform="scale(0.015625)"/>
      <path id="DejaVuSans-59" d="M -13 4666 
L 666 4666 
L 1959 2747 
L 3244 4666 
L 3922 4666 
L 2272 2222 
L 2272 0 
L 1638 0 
L 1638 2222 
L -13 4666 
z
" transform="scale(0.015625)"/>
      <path id="DejaVuSans-20" transform="scale(0.015625)"/>
      <path id="DejaVuSans-72" d="M 2631 2963 
Q 2534 3019 2420 3045 
Q 2306 3072 2169 3072 
Q 1681 3072 1420 2755 
Q 1159 2438 1159 1844 
L 1159 0 
L 581 0 
L 581 3500 
L 1159 3500 
L 1159 2956 
Q 1341 3275 1631 3429 
Q 1922 3584 2338 3584 
Q 2397 3584 2469 3576 
Q 2541 3569 2628 3553 
L 2631 2963 
z
" transform="scale(0.015625)"/>
      <path id="DejaVuSans-69" d="M 603 3500 
L 1178 3500 
L 1178 0 
L 603 0 
L 603 3500 
z
M 603 4863 
L 1178 4863 
L 1178 4134 
L 603 4134 
L 603 4863 
z
" transform="scale(0.015625)"/>
      <path id="DejaVuSans-6d" d="M 3328 2828 
Q 3544 3216 3844 3400 
Q 4144 3584 4550 3584 
Q 5097 3584 5394 3201 
Q 5691 2819 5691 2113 
L 5691 0 
L 5113 0 
L 5113 2094 
Q 5113 2597 4934 2840 
Q 4756 3084 4391 3084 
Q 3944 3084 3684 2787 
Q 3425 2491 3425 1978 
L 3425 0 
L 2847 0 
L 2847 2094 
Q 2847 2600 2669 2842 
Q 2491 3084 2119 3084 
Q 1678 3084 1418 2786 
Q 1159 2488 1159 1978 
L 1159 0 
L 581 0 
L 581 3500 
L 1159 3500 
L 1159 2956 
Q 1356 3278 1631 3431 
Q 1906 3584 2284 3584 
Q 2666 3584 2933 3390 
Q 3200 3197 3328 2828 
z
" transform="scale(0.015625)"/>
      <path id="DejaVuSans-56" d="M 1831 0 
L 50 4666 
L 709 4666 
L 2188 738 
L 3669 4666 
L 4325 4666 
L 2547 0 
L 1831 0 
z
" transform="scale(0.015625)"/>
      <path id="DejaVuSans-6c" d="M 603 4863 
L 1178 4863 
L 1178 0 
L 603 0 
L 603 4863 
z
" transform="scale(0.015625)"/>
      <path id="DejaVuSans-62" d="M 3116 1747 
Q 3116 2381 2855 2742 
Q 2594 3103 2138 3103 
Q 1681 3103 1420 2742 
Q 1159 2381 1159 1747 
Q 1159 1113 1420 752 
Q 1681 391 2138 391 
Q 2594 391 2855 752 
Q 3116 1113 3116 1747 
z
M 1159 2969 
Q 1341 3281 1617 3432 
Q 1894 3584 2278 3584 
Q 2916 3584 3314 3078 
Q 3713 2572 3713 1747 
Q 3713 922 3314 415 
Q 2916 -91 2278 -91 
Q 1894 -91 1617 61 
Q 1341 213 1159 525 
L 1159 0 
L 581 0 
L 581 4863 
L 1159 4863 
L 1159 2969 
z
" transform="scale(0.015625)"/>
      <path id="DejaVuSans-79" d="M 2059 -325 
Q 1816 -950 1584 -1140 
Q 1353 -1331 966 -1331 
L 506 -1331 
L 506 -850 
L 844 -850 
Q 1081 -850 1212 -737 
Q 1344 -625 1503 -206 
L 1606 56 
L 191 3500 
L 800 3500 
L 1894 763 
L 2988 3500 
L 3597 3500 
L 2059 -325 
z
" transform="scale(0.015625)"/>
      <path id="DejaVuSans-53" d="M 3425 4513 
L 3425 3897 
Q 3066 4069 2747 4153 
Q 2428 4238 2131 4238 
Q 1616 4238 1336 4038 
Q 1056 3838 1056 3469 
Q 1056 3159 1242 3001 
Q 1428 2844 1947 2747 
L 2328 2669 
Q 3034 2534 3370 2195 
Q 3706 1856 3706 1288 
Q 3706 609 3251 259 
Q 2797 -91 1919 -91 
Q 1588 -91 1214 -16 
Q 841 59 441 206 
L 441 856 
Q 825 641 1194 531 
Q 1563 422 1919 422 
Q 2459 422 2753 634 
Q 3047 847 3047 1241 
Q 3047 1584 2836 1778 
Q 2625 1972 2144 2069 
L 1759 2144 
Q 1053 2284 737 2584 
Q 422 2884 422 3419 
Q 422 4038 858 4394 
Q 1294 4750 2059 4750 
Q 2388 4750 2728 4690 
Q 3069 4631 3425 4513 
z
" transform="scale(0.015625)"/>
      <path id="DejaVuSans-76" d="M 191 3500 
L 800 3500 
L 1894 563 
L 2988 3500 
L 3597 3500 
L 2284 0 
L 1503 0 
L 191 3500 
z
" transform="scale(0.015625)"/>
     </defs>
     <use xlink:href="#DejaVuSans-4e"/>
     <use xlink:href="#DejaVuSans-59" x="74.804688"/>
     <use xlink:href="#DejaVuSans-43" x="130.388672"/>
     <use xlink:href="#DejaVuSans-20" x="200.212891"/>
     <use xlink:href="#DejaVuSans-43" x="232"/>
     <use xlink:href="#DejaVuSans-72" x="301.824219"/>
     <use xlink:href="#DejaVuSans-69" x="342.9375"/>
     <use xlink:href="#DejaVuSans-6d" x="370.720703"/>
     <use xlink:href="#DejaVuSans-65" x="468.132812"/>
     <use xlink:href="#DejaVuSans-20" x="529.65625"/>
     <use xlink:href="#DejaVuSans-56" x="561.443359"/>
     <use xlink:href="#DejaVuSans-6f" x="622.101562"/>
     <use xlink:href="#DejaVuSans-6c" x="683.283203"/>
     <use xlink:href="#DejaVuSans-75" x="711.066406"/>
     <use xlink:href="#DejaVuSans-6d" x="774.445312"/>
     <use xlink:href="#DejaVuSans-65" x="871.857422"/>
     <use xlink:href="#DejaVuSans-20" x="933.380859"/>
     <use xlink:href="#DejaVuSans-62" x="965.167969"/>
     <use xlink:href="#DejaVuSans-79" x="1028.644531"/>
     <use xlink:href="#DejaVuSans-20" x="1087.824219"/>
     <use xlink:href="#DejaVuSans-53" x="1119.611328"/>
     <use xlink:href="#DejaVuSans-65" x="1183.087891"/>
     <use xlink:href="#DejaVuSans-76" x="1244.611328"/>
     <use xlink:href="#DejaVuSans-65" x="1303.791016"/>
     <use xlink:href="#DejaVuSans-72" x="1365.314453"/>
     <use xlink:href="#DejaVuSans-69" x="1406.427734"/>
     <use xlink:href="#DejaVuSans-74" x="1434.210938"/>
     <use xlink:href="#DejaVuSans-79" x="1473.419922"/>
     <use xlink:href="#DejaVuSans-20" x="1532.599609"/>
     <use xlink:href="#DejaVuSans-62" x="1564.386719"/>
     <use xlink:href="#DejaVuSans-79" x="1627.863281"/>
     <use xlink:href="#DejaVuSans-20" x="1687.042969"/>
     <use xlink:href="#DejaVuSans-44" x="1718.830078"/>
     <use xlink:href="#DejaVuSans-61" x="1795.832031"/>
     <use xlink:href="#DejaVuSans-79" x="1857.111328"/>
     <use xlink:href="#DejaVuSans-20" x="1916.291016"/>
     <use xlink:href="#DejaVuSans-69" x="1948.078125"/>
     <use xlink:href="#DejaVuSans-6e" x="1975.861328"/>
     <use xlink:href="#DejaVuSans-20" x="2039.240234"/>
     <use xlink:href="#DejaVuSans-32" x="2071.027344"/>
     <use xlink:href="#DejaVuSans-30" x="2134.650391"/>
     <use xlink:href="#DejaVuSans-31" x="2198.273438"/>
     <use xlink:href="#DejaVuSans-38" x="2261.896484"/>
    </g>
   </g>
   <g id="legend_1">
    <g id="patch_7">
     <path d="M 890.965625 89.030625 
L 999 89.030625 
Q 1001 89.030625 1001 87.030625 
L 1001 29.318125 
Q 1001 27.318125 999 27.318125 
L 890.965625 27.318125 
Q 888.965625 27.318125 888.965625 29.318125 
L 888.965625 87.030625 
Q 888.965625 89.030625 890.965625 89.030625 
z
" style="fill: #ffffff; opacity: 0.8; stroke: #cccccc; stroke-linejoin: miter"/>
    </g>
    <g id="text_19">
     <!-- Legal Class -->
     <g transform="translate(916.8375 38.916562) scale(0.1 -0.1)">
      <defs>
       <path id="DejaVuSans-4c" d="M 628 4666 
L 1259 4666 
L 1259 531 
L 3531 531 
L 3531 0 
L 628 0 
L 628 4666 
z
" transform="scale(0.015625)"/>
       <path id="DejaVuSans-67" d="M 2906 1791 
Q 2906 2416 2648 2759 
Q 2391 3103 1925 3103 
Q 1463 3103 1205 2759 
Q 947 2416 947 1791 
Q 947 1169 1205 825 
Q 1463 481 1925 481 
Q 2391 481 2648 825 
Q 2906 1169 2906 1791 
z
M 3481 434 
Q 3481 -459 3084 -895 
Q 2688 -1331 1869 -1331 
Q 1566 -1331 1297 -1286 
Q 1028 -1241 775 -1147 
L 775 -588 
Q 1028 -725 1275 -790 
Q 1522 -856 1778 -856 
Q 2344 -856 2625 -561 
Q 2906 -266 2906 331 
L 2906 616 
Q 2728 306 2450 153 
Q 2172 0 1784 0 
Q 1141 0 747 490 
Q 353 981 353 1791 
Q 353 2603 747 3093 
Q 1141 3584 1784 3584 
Q 2172 3584 2450 3431 
Q 2728 3278 2906 2969 
L 2906 3500 
L 3481 3500 
L 3481 434 
z
" transform="scale(0.015625)"/>
       <path id="DejaVuSans-73" d="M 2834 3397 
L 2834 2853 
Q 2591 2978 2328 3040 
Q 2066 3103 1784 3103 
Q 1356 3103 1142 2972 
Q 928 2841 928 2578 
Q 928 2378 1081 2264 
Q 1234 2150 1697 2047 
L 1894 2003 
Q 2506 1872 2764 1633 
Q 3022 1394 3022 966 
Q 3022 478 2636 193 
Q 2250 -91 1575 -91 
Q 1294 -91 989 -36 
Q 684 19 347 128 
L 347 722 
Q 666 556 975 473 
Q 1284 391 1588 391 
Q 1994 391 2212 530 
Q 2431 669 2431 922 
Q 2431 1156 2273 1281 
Q 2116 1406 1581 1522 
L 1381 1569 
Q 847 1681 609 1914 
Q 372 2147 372 2553 
Q 372 3047 722 3315 
Q 1072 3584 1716 3584 
Q 2034 3584 2315 3537 
Q 2597 3491 2834 3397 
z
" transform="scale(0.015625)"/>
      </defs>
      <use xlink:href="#DejaVuSans-4c"/>
      <use xlink:href="#DejaVuSans-65" x="53.962891"/>
      <use xlink:href="#DejaVuSans-67" x="115.486328"/>
      <use xlink:href="#DejaVuSans-61" x="178.962891"/>
      <use xlink:href="#DejaVuSans-6c" x="240.242188"/>
      <use xlink:href="#DejaVuSans-20" x="268.025391"/>
      <use xlink:href="#DejaVuSans-43" x="299.8125"/>
      <use xlink:href="#DejaVuSans-6c" x="369.636719"/>
      <use xlink:href="#DejaVuSans-61" x="397.419922"/>
      <use xlink:href="#DejaVuSans-73" x="458.699219"/>
      <use xlink:href="#DejaVuSans-73" x="510.798828"/>
     </g>
    </g>
    <g id="line2d_19">
     <path d="M 892.965625 50.094687 
L 902.965625 50.094687 
L 912.965625 50.094687 
" style="fill: none; stroke: #1f77b4; stroke-width: 1.5; stroke-linecap: square"/>
    </g>
    <g id="text_20">
     <!-- FELONY -->
     <g transform="translate(920.965625 53.594687) scale(0.1 -0.1)">
      <defs>
       <path id="DejaVuSans-46" d="M 628 4666 
L 3309 4666 
L 3309 4134 
L 1259 4134 
L 1259 2759 
L 3109 2759 
L 3109 2228 
L 1259 2228 
L 1259 0 
L 628 0 
L 628 4666 
z
" transform="scale(0.015625)"/>
       <path id="DejaVuSans-45" d="M 628 4666 
L 3578 4666 
L 3578 4134 
L 1259 4134 
L 1259 2753 
L 3481 2753 
L 3481 2222 
L 1259 2222 
L 1259 531 
L 3634 531 
L 3634 0 
L 628 0 
L 628 4666 
z
" transform="scale(0.015625)"/>
       <path id="DejaVuSans-4f" d="M 2522 4238 
Q 1834 4238 1429 3725 
Q 1025 3213 1025 2328 
Q 1025 1447 1429 934 
Q 1834 422 2522 422 
Q 3209 422 3611 934 
Q 4013 1447 4013 2328 
Q 4013 3213 3611 3725 
Q 3209 4238 2522 4238 
z
M 2522 4750 
Q 3503 4750 4090 4092 
Q 4678 3434 4678 2328 
Q 4678 1225 4090 567 
Q 3503 -91 2522 -91 
Q 1538 -91 948 565 
Q 359 1222 359 2328 
Q 359 3434 948 4092 
Q 1538 4750 2522 4750 
z
" transform="scale(0.015625)"/>
      </defs>
      <use xlink:href="#DejaVuSans-46"/>
      <use xlink:href="#DejaVuSans-45" x="57.519531"/>
      <use xlink:href="#DejaVuSans-4c" x="120.703125"/>
      <use xlink:href="#DejaVuSans-4f" x="172.791016"/>
      <use xlink:href="#DejaVuSans-4e" x="251.501953"/>
      <use xlink:href="#DejaVuSans-59" x="326.306641"/>
     </g>
    </g>
    <g id="line2d_20">
     <path d="M 892.965625 64.772812 
L 902.965625 64.772812 
L 912.965625 64.772812 
" style="fill: none; stroke: #ff7f0e; stroke-width: 1.5; stroke-linecap: square"/>
    </g>
    <g id="text_21">
     <!-- MISDEMEANOR -->
     <g transform="translate(920.965625 68.272812) scale(0.1 -0.1)">
      <defs>
       <path id="DejaVuSans-4d" d="M 628 4666 
L 1569 4666 
L 2759 1491 
L 3956 4666 
L 4897 4666 
L 4897 0 
L 4281 0 
L 4281 4097 
L 3078 897 
L 2444 897 
L 1241 4097 
L 1241 0 
L 628 0 
L 628 4666 
z
" transform="scale(0.015625)"/>
       <path id="DejaVuSans-49" d="M 628 4666 
L 1259 4666 
L 1259 0 
L 628 0 
L 628 4666 
z
" transform="scale(0.015625)"/>
       <path id="DejaVuSans-41" d="M 2188 4044 
L 1331 1722 
L 3047 1722 
L 2188 4044 
z
M 1831 4666 
L 2547 4666 
L 4325 0 
L 3669 0 
L 3244 1197 
L 1141 1197 
L 716 0 
L 50 0 
L 1831 4666 
z
" transform="scale(0.015625)"/>
       <path id="DejaVuSans-52" d="M 2841 2188 
Q 3044 2119 3236 1894 
Q 3428 1669 3622 1275 
L 4263 0 
L 3584 0 
L 2988 1197 
Q 2756 1666 2539 1819 
Q 2322 1972 1947 1972 
L 1259 1972 
L 1259 0 
L 628 0 
L 628 4666 
L 2053 4666 
Q 2853 4666 3247 4331 
Q 3641 3997 3641 3322 
Q 3641 2881 3436 2590 
Q 3231 2300 2841 2188 
z
M 1259 4147 
L 1259 2491 
L 2053 2491 
Q 2509 2491 2742 2702 
Q 2975 2913 2975 3322 
Q 2975 3731 2742 3939 
Q 2509 4147 2053 4147 
L 1259 4147 
z
" transform="scale(0.015625)"/>
      </defs>
      <use xlink:href="#DejaVuSans-4d"/>
      <use xlink:href="#DejaVuSans-49" x="86.279297"/>
      <use xlink:href="#DejaVuSans-53" x="115.771484"/>
      <use xlink:href="#DejaVuSans-44" x="179.248047"/>
      <use xlink:href="#DejaVuSans-45" x="256.25"/>
      <use xlink:href="#DejaVuSans-4d" x="319.433594"/>
      <use xlink:href="#DejaVuSans-45" x="405.712891"/>
      <use xlink:href="#DejaVuSans-41" x="468.896484"/>
      <use xlink:href="#DejaVuSans-4e" x="537.304688"/>
      <use xlink:href="#DejaVuSans-4f" x="612.109375"/>
      <use xlink:href="#DejaVuSans-52" x="690.820312"/>
     </g>
    </g>
    <g id="line2d_21">
     <path d="M 892.965625 79.450937 
L 902.965625 79.450937 
L 912.965625 79.450937 
" style="fill: none; stroke: #2ca02c; stroke-width: 1.5; stroke-linecap: square"/>
    </g>
    <g id="text_22">
     <!-- VIOLATION -->
     <g transform="translate(920.965625 82.950937) scale(0.1 -0.1)">
      <defs>
       <path id="DejaVuSans-54" d="M -19 4666 
L 3928 4666 
L 3928 4134 
L 2272 4134 
L 2272 0 
L 1638 0 
L 1638 4134 
L -19 4134 
L -19 4666 
z
" transform="scale(0.015625)"/>
      </defs>
      <use xlink:href="#DejaVuSans-56"/>
      <use xlink:href="#DejaVuSans-49" x="68.408203"/>
      <use xlink:href="#DejaVuSans-4f" x="97.900391"/>
      <use xlink:href="#DejaVuSans-4c" x="176.611328"/>
      <use xlink:href="#DejaVuSans-41" x="234.574219"/>
      <use xlink:href="#DejaVuSans-54" x="295.232422"/>
      <use xlink:href="#DejaVuSans-49" x="356.316406"/>
      <use xlink:href="#DejaVuSans-4f" x="385.808594"/>
      <use xlink:href="#DejaVuSans-4e" x="464.519531"/>
     </g>
    </g>
   </g>
  </g>
 </g>
 <defs>
  <clipPath id="pb5f07d57d5">
   <rect x="46.965625" y="22.318125" width="837" height="332.64"/>
  </clipPath>
 </defs>
</svg>
