<?xml version="1.0" encoding="utf-8" standalone="no"?>
<!DOCTYPE svg PUBLIC "-//W3C//DTD SVG 1.1//EN"
  "http://www.w3.org/Graphics/SVG/1.1/DTD/svg11.dtd">
<svg xmlns:xlink="http://www.w3.org/1999/xlink" width="1001.8375pt" height="420.275565pt" viewBox="0 0 1001.8375 420.275565" xmlns="http://www.w3.org/2000/svg" version="1.1">
 <metadata>
  <rdf:RDF xmlns:dc="http://purl.org/dc/elements/1.1/" xmlns:cc="http://creativecommons.org/ns#" xmlns:rdf="http://www.w3.org/1999/02/22-rdf-syntax-ns#">
   <cc:Work>
    <dc:type rdf:resource="http://purl.org/dc/dcmitype/StillImage"/>
    <dc:date>2024-03-13T11:00:54.840089</dc:date>
    <dc:format>image/svg+xml</dc:format>
    <dc:creator>
     <cc:Agent>
      <dc:title>Matplotlib v3.8.0, https://matplotlib.org/</dc:title>
     </cc:Agent>
    </dc:creator>
   </cc:Work>
  </rdf:RDF>
 </metadata>
 <defs>
  <style type="text/css">*{stroke-linejoin: round; stroke-linecap: butt}</style>
 </defs>
 <g id="figure_1">
  <g id="patch_1">
   <path d="M 0 420.275565 
L 1001.8375 420.275565 
L 1001.8375 0 
L 0 0 
z
" style="fill: #0d0d0d"/>
  </g>
  <g id="axes_1">
   <g id="patch_2">
    <path d="M 40.603125 354.958125 
L 877.603125 354.958125 
L 877.603125 22.318125 
L 40.603125 22.318125 
z
" style="fill: #0d0d0d"/>
   </g>
   <g id="matplotlib.axis_1">
    <g id="xtick_1">
     <g id="line2d_1">
      <defs>
       <path id="mbcda56bdec" d="M 0 0 
L 0 3.5 
" style="stroke: #ffffff; stroke-width: 0.8"/>
      </defs>
      <g>
       <use xlink:href="#mbcda56bdec" x="78.64858" y="354.958125" style="fill: #ffffff; stroke: #ffffff; stroke-width: 0.8"/>
      </g>
     </g>
     <g id="text_1">
      <!-- 2018-02-01 -->
      <g style="fill: #ffffff" transform="translate(54.863463 397.596377) rotate(-30) scale(0.1 -0.1)">
       <defs>
        <path id="DejaVuSans-32" d="M 1228 531 
L 3431 531 
L 3431 0 
L 469 0 
L 469 531 
Q 828 903 1448 1529 
Q 2069 2156 2228 2338 
Q 2531 2678 2651 2914 
Q 2772 3150 2772 3378 
Q 2772 3750 2511 3984 
Q 2250 4219 1831 4219 
Q 1534 4219 1204 4116 
Q 875 4013 500 3803 
L 500 4441 
Q 881 4594 1212 4672 
Q 1544 4750 1819 4750 
Q 2544 4750 2975 4387 
Q 3406 4025 3406 3419 
Q 3406 3131 3298 2873 
Q 3191 2616 2906 2266 
Q 2828 2175 2409 1742 
Q 1991 1309 1228 531 
z
" transform="scale(0.015625)"/>
        <path id="DejaVuSans-30" d="M 2034 4250 
Q 1547 4250 1301 3770 
Q 1056 3291 1056 2328 
Q 1056 1369 1301 889 
Q 1547 409 2034 409 
Q 2525 409 2770 889 
Q 3016 1369 3016 2328 
Q 3016 3291 2770 3770 
Q 2525 4250 2034 4250 
z
M 2034 4750 
Q 2819 4750 3233 4129 
Q 3647 3509 3647 2328 
Q 3647 1150 3233 529 
Q 2819 -91 2034 -91 
Q 1250 -91 836 529 
Q 422 1150 422 2328 
Q 422 3509 836 4129 
Q 1250 4750 2034 4750 
z
" transform="scale(0.015625)"/>
        <path id="DejaVuSans-31" d="M 794 531 
L 1825 531 
L 1825 4091 
L 703 3866 
L 703 4441 
L 1819 4666 
L 2450 4666 
L 2450 531 
L 3481 531 
L 3481 0 
L 794 0 
L 794 531 
z
" transform="scale(0.015625)"/>
        <path id="DejaVuSans-38" d="M 2034 2216 
Q 1584 2216 1326 1975 
Q 1069 1734 1069 1313 
Q 1069 891 1326 650 
Q 1584 409 2034 409 
Q 2484 409 2743 651 
Q 3003 894 3003 1313 
Q 3003 1734 2745 1975 
Q 2488 2216 2034 2216 
z
M 1403 2484 
Q 997 2584 770 2862 
Q 544 3141 544 3541 
Q 544 4100 942 4425 
Q 1341 4750 2034 4750 
Q 2731 4750 3128 4425 
Q 3525 4100 3525 3541 
Q 3525 3141 3298 2862 
Q 3072 2584 2669 2484 
Q 3125 2378 3379 2068 
Q 3634 1759 3634 1313 
Q 3634 634 3220 271 
Q 2806 -91 2034 -91 
Q 1263 -91 848 271 
Q 434 634 434 1313 
Q 434 1759 690 2068 
Q 947 2378 1403 2484 
z
M 1172 3481 
Q 1172 3119 1398 2916 
Q 1625 2713 2034 2713 
Q 2441 2713 2670 2916 
Q 2900 3119 2900 3481 
Q 2900 3844 2670 4047 
Q 2441 4250 2034 4250 
Q 1625 4250 1398 4047 
Q 1172 3844 1172 3481 
z
" transform="scale(0.015625)"/>
        <path id="DejaVuSans-2d" d="M 313 2009 
L 1997 2009 
L 1997 1497 
L 313 1497 
L 313 2009 
z
" transform="scale(0.015625)"/>
       </defs>
       <use xlink:href="#DejaVuSans-32"/>
       <use xlink:href="#DejaVuSans-30" x="63.623047"/>
       <use xlink:href="#DejaVuSans-31" x="127.246094"/>
       <use xlink:href="#DejaVuSans-38" x="190.869141"/>
       <use xlink:href="#DejaVuSans-2d" x="254.492188"/>
       <use xlink:href="#DejaVuSans-30" x="290.576172"/>
       <use xlink:href="#DejaVuSans-32" x="354.199219"/>
       <use xlink:href="#DejaVuSans-2d" x="417.822266"/>
       <use xlink:href="#DejaVuSans-30" x="453.90625"/>
       <use xlink:href="#DejaVuSans-31" x="517.529297"/>
      </g>
     </g>
    </g>
    <g id="xtick_2">
     <g id="line2d_2">
      <g>
       <use xlink:href="#mbcda56bdec" x="187.349878" y="354.958125" style="fill: #ffffff; stroke: #ffffff; stroke-width: 0.8"/>
      </g>
     </g>
     <g id="text_2">
      <!-- 2018-02-05 -->
      <g style="fill: #ffffff" transform="translate(163.564762 397.596377) rotate(-30) scale(0.1 -0.1)">
       <defs>
        <path id="DejaVuSans-35" d="M 691 4666 
L 3169 4666 
L 3169 4134 
L 1269 4134 
L 1269 2991 
Q 1406 3038 1543 3061 
Q 1681 3084 1819 3084 
Q 2600 3084 3056 2656 
Q 3513 2228 3513 1497 
Q 3513 744 3044 326 
Q 2575 -91 1722 -91 
Q 1428 -91 1123 -41 
Q 819 9 494 109 
L 494 744 
Q 775 591 1075 516 
Q 1375 441 1709 441 
Q 2250 441 2565 725 
Q 2881 1009 2881 1497 
Q 2881 1984 2565 2268 
Q 2250 2553 1709 2553 
Q 1456 2553 1204 2497 
Q 953 2441 691 2322 
L 691 4666 
z
" transform="scale(0.015625)"/>
       </defs>
       <use xlink:href="#DejaVuSans-32"/>
       <use xlink:href="#DejaVuSans-30" x="63.623047"/>
       <use xlink:href="#DejaVuSans-31" x="127.246094"/>
       <use xlink:href="#DejaVuSans-38" x="190.869141"/>
       <use xlink:href="#DejaVuSans-2d" x="254.492188"/>
       <use xlink:href="#DejaVuSans-30" x="290.576172"/>
       <use xlink:href="#DejaVuSans-32" x="354.199219"/>
       <use xlink:href="#DejaVuSans-2d" x="417.822266"/>
       <use xlink:href="#DejaVuSans-30" x="453.90625"/>
       <use xlink:href="#DejaVuSans-35" x="517.529297"/>
      </g>
     </g>
    </g>
    <g id="xtick_3">
     <g id="line2d_3">
      <g>
       <use xlink:href="#mbcda56bdec" x="296.051177" y="354.958125" style="fill: #ffffff; stroke: #ffffff; stroke-width: 0.8"/>
      </g>
     </g>
     <g id="text_3">
      <!-- 2018-02-09 -->
      <g style="fill: #ffffff" transform="translate(272.266061 397.596377) rotate(-30) scale(0.1 -0.1)">
       <defs>
        <path id="DejaVuSans-39" d="M 703 97 
L 703 672 
Q 941 559 1184 500 
Q 1428 441 1663 441 
Q 2288 441 2617 861 
Q 2947 1281 2994 2138 
Q 2813 1869 2534 1725 
Q 2256 1581 1919 1581 
Q 1219 1581 811 2004 
Q 403 2428 403 3163 
Q 403 3881 828 4315 
Q 1253 4750 1959 4750 
Q 2769 4750 3195 4129 
Q 3622 3509 3622 2328 
Q 3622 1225 3098 567 
Q 2575 -91 1691 -91 
Q 1453 -91 1209 -44 
Q 966 3 703 97 
z
M 1959 2075 
Q 2384 2075 2632 2365 
Q 2881 2656 2881 3163 
Q 2881 3666 2632 3958 
Q 2384 4250 1959 4250 
Q 1534 4250 1286 3958 
Q 1038 3666 1038 3163 
Q 1038 2656 1286 2365 
Q 1534 2075 1959 2075 
z
" transform="scale(0.015625)"/>
       </defs>
       <use xlink:href="#DejaVuSans-32"/>
       <use xlink:href="#DejaVuSans-30" x="63.623047"/>
       <use xlink:href="#DejaVuSans-31" x="127.246094"/>
       <use xlink:href="#DejaVuSans-38" x="190.869141"/>
       <use xlink:href="#DejaVuSans-2d" x="254.492188"/>
       <use xlink:href="#DejaVuSans-30" x="290.576172"/>
       <use xlink:href="#DejaVuSans-32" x="354.199219"/>
       <use xlink:href="#DejaVuSans-2d" x="417.822266"/>
       <use xlink:href="#DejaVuSans-30" x="453.90625"/>
       <use xlink:href="#DejaVuSans-39" x="517.529297"/>
      </g>
     </g>
    </g>
    <g id="xtick_4">
     <g id="line2d_4">
      <g>
       <use xlink:href="#mbcda56bdec" x="404.752476" y="354.958125" style="fill: #ffffff; stroke: #ffffff; stroke-width: 0.8"/>
      </g>
     </g>
     <g id="text_4">
      <!-- 2018-02-13 -->
      <g style="fill: #ffffff" transform="translate(380.967359 397.596377) rotate(-30) scale(0.1 -0.1)">
       <defs>
        <path id="DejaVuSans-33" d="M 2597 2516 
Q 3050 2419 3304 2112 
Q 3559 1806 3559 1356 
Q 3559 666 3084 287 
Q 2609 -91 1734 -91 
Q 1441 -91 1130 -33 
Q 819 25 488 141 
L 488 750 
Q 750 597 1062 519 
Q 1375 441 1716 441 
Q 2309 441 2620 675 
Q 2931 909 2931 1356 
Q 2931 1769 2642 2001 
Q 2353 2234 1838 2234 
L 1294 2234 
L 1294 2753 
L 1863 2753 
Q 2328 2753 2575 2939 
Q 2822 3125 2822 3475 
Q 2822 3834 2567 4026 
Q 2313 4219 1838 4219 
Q 1578 4219 1281 4162 
Q 984 4106 628 3988 
L 628 4550 
Q 988 4650 1302 4700 
Q 1616 4750 1894 4750 
Q 2613 4750 3031 4423 
Q 3450 4097 3450 3541 
Q 3450 3153 3228 2886 
Q 3006 2619 2597 2516 
z
" transform="scale(0.015625)"/>
       </defs>
       <use xlink:href="#DejaVuSans-32"/>
       <use xlink:href="#DejaVuSans-30" x="63.623047"/>
       <use xlink:href="#DejaVuSans-31" x="127.246094"/>
       <use xlink:href="#DejaVuSans-38" x="190.869141"/>
       <use xlink:href="#DejaVuSans-2d" x="254.492188"/>
       <use xlink:href="#DejaVuSans-30" x="290.576172"/>
       <use xlink:href="#DejaVuSans-32" x="354.199219"/>
       <use xlink:href="#DejaVuSans-2d" x="417.822266"/>
       <use xlink:href="#DejaVuSans-31" x="453.90625"/>
       <use xlink:href="#DejaVuSans-33" x="517.529297"/>
      </g>
     </g>
    </g>
    <g id="xtick_5">
     <g id="line2d_5">
      <g>
       <use xlink:href="#mbcda56bdec" x="513.453774" y="354.958125" style="fill: #ffffff; stroke: #ffffff; stroke-width: 0.8"/>
      </g>
     </g>
     <g id="text_5">
      <!-- 2018-02-17 -->
      <g style="fill: #ffffff" transform="translate(489.668658 397.596377) rotate(-30) scale(0.1 -0.1)">
       <defs>
        <path id="DejaVuSans-37" d="M 525 4666 
L 3525 4666 
L 3525 4397 
L 1831 0 
L 1172 0 
L 2766 4134 
L 525 4134 
L 525 4666 
z
" transform="scale(0.015625)"/>
       </defs>
       <use xlink:href="#DejaVuSans-32"/>
       <use xlink:href="#DejaVuSans-30" x="63.623047"/>
       <use xlink:href="#DejaVuSans-31" x="127.246094"/>
       <use xlink:href="#DejaVuSans-38" x="190.869141"/>
       <use xlink:href="#DejaVuSans-2d" x="254.492188"/>
       <use xlink:href="#DejaVuSans-30" x="290.576172"/>
       <use xlink:href="#DejaVuSans-32" x="354.199219"/>
       <use xlink:href="#DejaVuSans-2d" x="417.822266"/>
       <use xlink:href="#DejaVuSans-31" x="453.90625"/>
       <use xlink:href="#DejaVuSans-37" x="517.529297"/>
      </g>
     </g>
    </g>
    <g id="xtick_6">
     <g id="line2d_6">
      <g>
       <use xlink:href="#mbcda56bdec" x="622.155073" y="354.958125" style="fill: #ffffff; stroke: #ffffff; stroke-width: 0.8"/>
      </g>
     </g>
     <g id="text_6">
      <!-- 2018-02-21 -->
      <g style="fill: #ffffff" transform="translate(598.369957 397.596377) rotate(-30) scale(0.1 -0.1)">
       <use xlink:href="#DejaVuSans-32"/>
       <use xlink:href="#DejaVuSans-30" x="63.623047"/>
       <use xlink:href="#DejaVuSans-31" x="127.246094"/>
       <use xlink:href="#DejaVuSans-38" x="190.869141"/>
       <use xlink:href="#DejaVuSans-2d" x="254.492188"/>
       <use xlink:href="#DejaVuSans-30" x="290.576172"/>
       <use xlink:href="#DejaVuSans-32" x="354.199219"/>
       <use xlink:href="#DejaVuSans-2d" x="417.822266"/>
       <use xlink:href="#DejaVuSans-32" x="453.90625"/>
       <use xlink:href="#DejaVuSans-31" x="517.529297"/>
      </g>
     </g>
    </g>
    <g id="xtick_7">
     <g id="line2d_7">
      <g>
       <use xlink:href="#mbcda56bdec" x="730.856372" y="354.958125" style="fill: #ffffff; stroke: #ffffff; stroke-width: 0.8"/>
      </g>
     </g>
     <g id="text_7">
      <!-- 2018-02-25 -->
      <g style="fill: #ffffff" transform="translate(707.071255 397.596377) rotate(-30) scale(0.1 -0.1)">
       <use xlink:href="#DejaVuSans-32"/>
       <use xlink:href="#DejaVuSans-30" x="63.623047"/>
       <use xlink:href="#DejaVuSans-31" x="127.246094"/>
       <use xlink:href="#DejaVuSans-38" x="190.869141"/>
       <use xlink:href="#DejaVuSans-2d" x="254.492188"/>
       <use xlink:href="#DejaVuSans-30" x="290.576172"/>
       <use xlink:href="#DejaVuSans-32" x="354.199219"/>
       <use xlink:href="#DejaVuSans-2d" x="417.822266"/>
       <use xlink:href="#DejaVuSans-32" x="453.90625"/>
       <use xlink:href="#DejaVuSans-35" x="517.529297"/>
      </g>
     </g>
    </g>
    <g id="xtick_8">
     <g id="line2d_8">
      <g>
       <use xlink:href="#mbcda56bdec" x="839.55767" y="354.958125" style="fill: #ffffff; stroke: #ffffff; stroke-width: 0.8"/>
      </g>
     </g>
     <g id="text_8">
      <!-- 2018-03-01 -->
      <g style="fill: #ffffff" transform="translate(815.772554 397.596377) rotate(-30) scale(0.1 -0.1)">
       <use xlink:href="#DejaVuSans-32"/>
       <use xlink:href="#DejaVuSans-30" x="63.623047"/>
       <use xlink:href="#DejaVuSans-31" x="127.246094"/>
       <use xlink:href="#DejaVuSans-38" x="190.869141"/>
       <use xlink:href="#DejaVuSans-2d" x="254.492188"/>
       <use xlink:href="#DejaVuSans-30" x="290.576172"/>
       <use xlink:href="#DejaVuSans-33" x="354.199219"/>
       <use xlink:href="#DejaVuSans-2d" x="417.822266"/>
       <use xlink:href="#DejaVuSans-30" x="453.90625"/>
       <use xlink:href="#DejaVuSans-31" x="517.529297"/>
      </g>
     </g>
    </g>
    <g id="text_9">
     <!-- Date -->
     <g style="fill: #ffffff" transform="translate(447.152344 410.995877) scale(0.1 -0.1)">
      <defs>
       <path id="DejaVuSans-44" d="M 1259 4147 
L 1259 519 
L 2022 519 
Q 2988 519 3436 956 
Q 3884 1394 3884 2338 
Q 3884 3275 3436 3711 
Q 2988 4147 2022 4147 
L 1259 4147 
z
M 628 4666 
L 1925 4666 
Q 3281 4666 3915 4102 
Q 4550 3538 4550 2338 
Q 4550 1131 3912 565 
Q 3275 0 1925 0 
L 628 0 
L 628 4666 
z
" transform="scale(0.015625)"/>
       <path id="DejaVuSans-61" d="M 2194 1759 
Q 1497 1759 1228 1600 
Q 959 1441 959 1056 
Q 959 750 1161 570 
Q 1363 391 1709 391 
Q 2188 391 2477 730 
Q 2766 1069 2766 1631 
L 2766 1759 
L 2194 1759 
z
M 3341 1997 
L 3341 0 
L 2766 0 
L 2766 531 
Q 2569 213 2275 61 
Q 1981 -91 1556 -91 
Q 1019 -91 701 211 
Q 384 513 384 1019 
Q 384 1609 779 1909 
Q 1175 2209 1959 2209 
L 2766 2209 
L 2766 2266 
Q 2766 2663 2505 2880 
Q 2244 3097 1772 3097 
Q 1472 3097 1187 3025 
Q 903 2953 641 2809 
L 641 3341 
Q 956 3463 1253 3523 
Q 1550 3584 1831 3584 
Q 2591 3584 2966 3190 
Q 3341 2797 3341 1997 
z
" transform="scale(0.015625)"/>
       <path id="DejaVuSans-74" d="M 1172 4494 
L 1172 3500 
L 2356 3500 
L 2356 3053 
L 1172 3053 
L 1172 1153 
Q 1172 725 1289 603 
Q 1406 481 1766 481 
L 2356 481 
L 2356 0 
L 1766 0 
Q 1100 0 847 248 
Q 594 497 594 1153 
L 594 3053 
L 172 3053 
L 172 3500 
L 594 3500 
L 594 4494 
L 1172 4494 
z
" transform="scale(0.015625)"/>
       <path id="DejaVuSans-65" d="M 3597 1894 
L 3597 1613 
L 953 1613 
Q 991 1019 1311 708 
Q 1631 397 2203 397 
Q 2534 397 2845 478 
Q 3156 559 3463 722 
L 3463 178 
Q 3153 47 2828 -22 
Q 2503 -91 2169 -91 
Q 1331 -91 842 396 
Q 353 884 353 1716 
Q 353 2575 817 3079 
Q 1281 3584 2069 3584 
Q 2775 3584 3186 3129 
Q 3597 2675 3597 1894 
z
M 3022 2063 
Q 3016 2534 2758 2815 
Q 2500 3097 2075 3097 
Q 1594 3097 1305 2825 
Q 1016 2553 972 2059 
L 3022 2063 
z
" transform="scale(0.015625)"/>
      </defs>
      <use xlink:href="#DejaVuSans-44"/>
      <use xlink:href="#DejaVuSans-61" x="77.001953"/>
      <use xlink:href="#DejaVuSans-74" x="138.28125"/>
      <use xlink:href="#DejaVuSans-65" x="177.490234"/>
     </g>
    </g>
   </g>
   <g id="matplotlib.axis_2">
    <g id="ytick_1">
     <g id="line2d_9">
      <defs>
       <path id="m85ef85e33f" d="M 0 0 
L -3.5 0 
" style="stroke: #ffffff; stroke-width: 0.8"/>
      </defs>
      <g>
       <use xlink:href="#m85ef85e33f" x="40.603125" y="343.161202" style="fill: #ffffff; stroke: #ffffff; stroke-width: 0.8"/>
      </g>
     </g>
     <g id="text_10">
      <!-- 0 -->
      <g style="fill: #ffffff" transform="translate(27.240625 346.960421) scale(0.1 -0.1)">
       <use xlink:href="#DejaVuSans-30"/>
      </g>
     </g>
    </g>
    <g id="ytick_2">
     <g id="line2d_10">
      <g>
       <use xlink:href="#m85ef85e33f" x="40.603125" y="276.699663" style="fill: #ffffff; stroke: #ffffff; stroke-width: 0.8"/>
      </g>
     </g>
     <g id="text_11">
      <!-- 20 -->
      <g style="fill: #ffffff" transform="translate(20.878125 280.498882) scale(0.1 -0.1)">
       <use xlink:href="#DejaVuSans-32"/>
       <use xlink:href="#DejaVuSans-30" x="63.623047"/>
      </g>
     </g>
    </g>
    <g id="ytick_3">
     <g id="line2d_11">
      <g>
       <use xlink:href="#m85ef85e33f" x="40.603125" y="210.238125" style="fill: #ffffff; stroke: #ffffff; stroke-width: 0.8"/>
      </g>
     </g>
     <g id="text_12">
      <!-- 40 -->
      <g style="fill: #ffffff" transform="translate(20.878125 214.037344) scale(0.1 -0.1)">
       <defs>
        <path id="DejaVuSans-34" d="M 2419 4116 
L 825 1625 
L 2419 1625 
L 2419 4116 
z
M 2253 4666 
L 3047 4666 
L 3047 1625 
L 3713 1625 
L 3713 1100 
L 3047 1100 
L 3047 0 
L 2419 0 
L 2419 1100 
L 313 1100 
L 313 1709 
L 2253 4666 
z
" transform="scale(0.015625)"/>
       </defs>
       <use xlink:href="#DejaVuSans-34"/>
       <use xlink:href="#DejaVuSans-30" x="63.623047"/>
      </g>
     </g>
    </g>
    <g id="ytick_4">
     <g id="line2d_12">
      <g>
       <use xlink:href="#m85ef85e33f" x="40.603125" y="143.776587" style="fill: #ffffff; stroke: #ffffff; stroke-width: 0.8"/>
      </g>
     </g>
     <g id="text_13">
      <!-- 60 -->
      <g style="fill: #ffffff" transform="translate(20.878125 147.575805) scale(0.1 -0.1)">
       <defs>
        <path id="DejaVuSans-36" d="M 2113 2584 
Q 1688 2584 1439 2293 
Q 1191 2003 1191 1497 
Q 1191 994 1439 701 
Q 1688 409 2113 409 
Q 2538 409 2786 701 
Q 3034 994 3034 1497 
Q 3034 2003 2786 2293 
Q 2538 2584 2113 2584 
z
M 3366 4563 
L 3366 3988 
Q 3128 4100 2886 4159 
Q 2644 4219 2406 4219 
Q 1781 4219 1451 3797 
Q 1122 3375 1075 2522 
Q 1259 2794 1537 2939 
Q 1816 3084 2150 3084 
Q 2853 3084 3261 2657 
Q 3669 2231 3669 1497 
Q 3669 778 3244 343 
Q 2819 -91 2113 -91 
Q 1303 -91 875 529 
Q 447 1150 447 2328 
Q 447 3434 972 4092 
Q 1497 4750 2381 4750 
Q 2619 4750 2861 4703 
Q 3103 4656 3366 4563 
z
" transform="scale(0.015625)"/>
       </defs>
       <use xlink:href="#DejaVuSans-36"/>
       <use xlink:href="#DejaVuSans-30" x="63.623047"/>
      </g>
     </g>
    </g>
    <g id="ytick_5">
     <g id="line2d_13">
      <g>
       <use xlink:href="#m85ef85e33f" x="40.603125" y="77.315048" style="fill: #ffffff; stroke: #ffffff; stroke-width: 0.8"/>
      </g>
     </g>
     <g id="text_14">
      <!-- 80 -->
      <g style="fill: #ffffff" transform="translate(20.878125 81.114267) scale(0.1 -0.1)">
       <use xlink:href="#DejaVuSans-38"/>
       <use xlink:href="#DejaVuSans-30" x="63.623047"/>
      </g>
     </g>
    </g>
    <g id="text_15">
     <!-- Count -->
     <g style="fill: #ffffff" transform="translate(14.798438 203.486562) rotate(-90) scale(0.1 -0.1)">
      <defs>
       <path id="DejaVuSans-43" d="M 4122 4306 
L 4122 3641 
Q 3803 3938 3442 4084 
Q 3081 4231 2675 4231 
Q 1875 4231 1450 3742 
Q 1025 3253 1025 2328 
Q 1025 1406 1450 917 
Q 1875 428 2675 428 
Q 3081 428 3442 575 
Q 3803 722 4122 1019 
L 4122 359 
Q 3791 134 3420 21 
Q 3050 -91 2638 -91 
Q 1578 -91 968 557 
Q 359 1206 359 2328 
Q 359 3453 968 4101 
Q 1578 4750 2638 4750 
Q 3056 4750 3426 4639 
Q 3797 4528 4122 4306 
z
" transform="scale(0.015625)"/>
       <path id="DejaVuSans-6f" d="M 1959 3097 
Q 1497 3097 1228 2736 
Q 959 2375 959 1747 
Q 959 1119 1226 758 
Q 1494 397 1959 397 
Q 2419 397 2687 759 
Q 2956 1122 2956 1747 
Q 2956 2369 2687 2733 
Q 2419 3097 1959 3097 
z
M 1959 3584 
Q 2709 3584 3137 3096 
Q 3566 2609 3566 1747 
Q 3566 888 3137 398 
Q 2709 -91 1959 -91 
Q 1206 -91 779 398 
Q 353 888 353 1747 
Q 353 2609 779 3096 
Q 1206 3584 1959 3584 
z
" transform="scale(0.015625)"/>
       <path id="DejaVuSans-75" d="M 544 1381 
L 544 3500 
L 1119 3500 
L 1119 1403 
Q 1119 906 1312 657 
Q 1506 409 1894 409 
Q 2359 409 2629 706 
Q 2900 1003 2900 1516 
L 2900 3500 
L 3475 3500 
L 3475 0 
L 2900 0 
L 2900 538 
Q 2691 219 2414 64 
Q 2138 -91 1772 -91 
Q 1169 -91 856 284 
Q 544 659 544 1381 
z
M 1991 3584 
L 1991 3584 
z
" transform="scale(0.015625)"/>
       <path id="DejaVuSans-6e" d="M 3513 2113 
L 3513 0 
L 2938 0 
L 2938 2094 
Q 2938 2591 2744 2837 
Q 2550 3084 2163 3084 
Q 1697 3084 1428 2787 
Q 1159 2491 1159 1978 
L 1159 0 
L 581 0 
L 581 3500 
L 1159 3500 
L 1159 2956 
Q 1366 3272 1645 3428 
Q 1925 3584 2291 3584 
Q 2894 3584 3203 3211 
Q 3513 2838 3513 2113 
z
" transform="scale(0.015625)"/>
      </defs>
      <use xlink:href="#DejaVuSans-43"/>
      <use xlink:href="#DejaVuSans-6f" x="69.824219"/>
      <use xlink:href="#DejaVuSans-75" x="131.005859"/>
      <use xlink:href="#DejaVuSans-6e" x="194.384766"/>
      <use xlink:href="#DejaVuSans-74" x="257.763672"/>
     </g>
    </g>
   </g>
   <g id="line2d_14">
    <path d="M 78.64858 223.530433 
L 79.780885 313.25351 
L 82.045495 313.25351 
L 83.1778 319.899663 
L 84.310106 316.576587 
L 85.442411 336.515048 
L 86.574716 326.545817 
L 87.707021 266.730433 
L 88.839326 253.438125 
L 89.971631 293.315048 
L 91.103937 286.668894 
L 92.236242 253.438125 
L 93.368547 263.407356 
L 94.500852 276.699663 
L 95.633157 240.145817 
L 96.765463 273.376587 
L 97.897768 289.991971 
L 99.030073 260.084279 
L 100.162378 293.315048 
L 101.294683 273.376587 
L 102.426989 270.05351 
L 103.559294 286.668894 
L 105.823904 280.02274 
L 106.956209 299.961202 
L 108.088515 309.930433 
L 109.22082 323.22274 
L 110.353125 316.576587 
L 111.48543 316.576587 
L 112.617735 323.22274 
L 113.750041 316.576587 
L 114.882346 289.991971 
L 116.014651 286.668894 
L 117.146956 280.02274 
L 118.279261 309.930433 
L 119.411567 256.761202 
L 120.543872 296.638125 
L 121.676177 303.284279 
L 122.808482 240.145817 
L 123.940787 250.115048 
L 125.073093 276.699663 
L 126.205398 250.115048 
L 127.337703 246.791971 
L 128.470008 253.438125 
L 129.602313 289.991971 
L 130.734619 296.638125 
L 131.866924 296.638125 
L 132.999229 283.345817 
L 134.131534 293.315048 
L 135.263839 313.25351 
L 136.396144 263.407356 
L 137.52845 286.668894 
L 138.660755 293.315048 
L 139.79306 323.22274 
L 140.925365 326.545817 
L 142.05767 319.899663 
L 143.189976 309.930433 
L 144.322281 306.607356 
L 145.454586 309.930433 
L 146.586891 289.991971 
L 147.719196 296.638125 
L 148.851502 289.991971 
L 149.983807 273.376587 
L 151.116112 276.699663 
L 152.248417 293.315048 
L 153.380722 289.991971 
L 154.513028 273.376587 
L 155.645333 309.930433 
L 156.777638 263.407356 
L 157.909943 273.376587 
L 159.042248 289.991971 
L 160.174554 236.82274 
L 161.306859 273.376587 
L 162.439164 276.699663 
L 163.571469 313.25351 
L 164.703774 303.284279 
L 165.83608 309.930433 
L 166.968385 329.868894 
L 168.10069 329.868894 
L 169.232995 323.22274 
L 170.3653 323.22274 
L 172.629911 309.930433 
L 173.762216 293.315048 
L 174.894521 316.576587 
L 176.026826 289.991971 
L 177.159131 270.05351 
L 178.291437 296.638125 
L 179.423742 276.699663 
L 180.556047 273.376587 
L 181.688352 289.991971 
L 182.820657 309.930433 
L 183.952963 283.345817 
L 185.085268 313.25351 
L 186.217573 293.315048 
L 187.349878 280.02274 
L 188.482183 313.25351 
L 189.614489 286.668894 
L 190.746794 313.25351 
L 191.879099 329.868894 
L 193.011404 323.22274 
L 194.143709 333.191971 
L 195.276015 313.25351 
L 196.40832 286.668894 
L 197.540625 286.668894 
L 198.67293 266.730433 
L 199.805235 286.668894 
L 200.937541 256.761202 
L 202.069846 263.407356 
L 203.202151 293.315048 
L 204.334456 270.05351 
L 205.466761 280.02274 
L 206.599067 273.376587 
L 207.731372 299.961202 
L 208.863677 253.438125 
L 209.995982 293.315048 
L 211.128287 289.991971 
L 212.260593 280.02274 
L 213.392898 293.315048 
L 214.525203 293.315048 
L 215.657508 323.22274 
L 216.789813 319.899663 
L 217.922119 319.899663 
L 219.054424 313.25351 
L 220.186729 329.868894 
L 221.319034 326.545817 
L 222.451339 326.545817 
L 223.583644 289.991971 
L 224.71595 266.730433 
L 225.848255 280.02274 
L 226.98056 286.668894 
L 228.112865 236.82274 
L 229.24517 303.284279 
L 230.377476 276.699663 
L 231.509781 270.05351 
L 232.642086 283.345817 
L 234.906696 289.991971 
L 236.039002 263.407356 
L 237.171307 276.699663 
L 238.303612 313.25351 
L 239.435917 276.699663 
L 240.568222 280.02274 
L 241.700528 270.05351 
L 242.832833 309.930433 
L 243.965138 323.22274 
L 245.097443 333.191971 
L 246.229748 296.638125 
L 247.362054 319.899663 
L 248.494359 309.930433 
L 249.626664 319.899663 
L 250.758969 280.02274 
L 251.891274 276.699663 
L 253.02358 280.02274 
L 254.155885 296.638125 
L 255.28819 273.376587 
L 256.420495 299.961202 
L 257.5528 289.991971 
L 258.685106 283.345817 
L 259.817411 256.761202 
L 260.949716 273.376587 
L 262.082021 286.668894 
L 263.214326 273.376587 
L 264.346631 266.730433 
L 265.478937 286.668894 
L 266.611242 309.930433 
L 267.743547 309.930433 
L 268.875852 293.315048 
L 270.008157 293.315048 
L 271.140463 316.576587 
L 272.272768 309.930433 
L 273.405073 326.545817 
L 274.537378 329.868894 
L 275.669683 319.899663 
L 276.801989 323.22274 
L 277.934294 293.315048 
L 279.066599 280.02274 
L 280.198904 289.991971 
L 281.331209 313.25351 
L 282.463515 263.407356 
L 283.59582 260.084279 
L 286.992735 270.05351 
L 288.125041 263.407356 
L 289.257346 296.638125 
L 290.389651 299.961202 
L 291.521956 280.02274 
L 292.654261 289.991971 
L 293.786567 303.284279 
L 294.918872 273.376587 
L 296.051177 286.668894 
L 297.183482 296.638125 
L 298.315787 329.868894 
L 299.448093 316.576587 
L 300.580398 336.515048 
L 301.712703 326.545817 
L 302.845008 326.545817 
L 303.977313 306.607356 
L 305.109619 316.576587 
L 306.241924 293.315048 
L 307.374229 273.376587 
L 308.506534 303.284279 
L 309.638839 273.376587 
L 310.771144 289.991971 
L 311.90345 280.02274 
L 313.035755 276.699663 
L 315.300365 236.82274 
L 316.43267 283.345817 
L 317.564976 253.438125 
L 318.697281 250.115048 
L 319.829586 270.05351 
L 320.961891 270.05351 
L 322.094196 266.730433 
L 323.226502 280.02274 
L 324.358807 280.02274 
L 325.491112 243.468894 
L 326.623417 309.930433 
L 327.755722 289.991971 
L 328.888028 306.607356 
L 331.152638 313.25351 
L 332.284943 323.22274 
L 333.417248 319.899663 
L 334.549554 296.638125 
L 335.681859 303.284279 
L 336.814164 283.345817 
L 337.946469 276.699663 
L 339.078774 306.607356 
L 340.21108 273.376587 
L 341.343385 283.345817 
L 342.47569 299.961202 
L 343.607995 306.607356 
L 344.7403 289.991971 
L 345.872606 303.284279 
L 347.004911 253.438125 
L 348.137216 280.02274 
L 349.269521 309.930433 
L 350.401826 276.699663 
L 351.534131 296.638125 
L 352.666437 293.315048 
L 353.798742 299.961202 
L 354.931047 309.930433 
L 356.063352 303.284279 
L 357.195657 329.868894 
L 358.327963 319.899663 
L 359.460268 319.899663 
L 360.592573 316.576587 
L 361.724878 316.576587 
L 362.857183 313.25351 
L 363.989489 306.607356 
L 365.121794 309.930433 
L 366.254099 309.930433 
L 367.386404 280.02274 
L 368.518709 283.345817 
L 369.651015 273.376587 
L 370.78332 296.638125 
L 371.915625 260.084279 
L 373.04793 276.699663 
L 374.180235 296.638125 
L 375.312541 296.638125 
L 376.444846 303.284279 
L 377.577151 270.05351 
L 378.709456 313.25351 
L 379.841761 313.25351 
L 382.106372 299.961202 
L 383.238677 323.22274 
L 384.370982 329.868894 
L 385.503287 306.607356 
L 386.635593 289.991971 
L 387.767898 286.668894 
L 388.900203 293.315048 
L 390.032508 293.315048 
L 391.164813 246.791971 
L 392.297119 283.345817 
L 393.429424 299.961202 
L 394.561729 289.991971 
L 395.694034 296.638125 
L 396.826339 276.699663 
L 397.958644 266.730433 
L 399.09095 263.407356 
L 400.223255 270.05351 
L 401.35556 293.315048 
L 402.487865 283.345817 
L 403.62017 303.284279 
L 404.752476 286.668894 
L 405.884781 309.930433 
L 408.149391 316.576587 
L 409.281696 329.868894 
L 410.414002 329.868894 
L 411.546307 336.515048 
L 412.678612 316.576587 
L 413.810917 326.545817 
L 416.075528 286.668894 
L 417.207833 303.284279 
L 418.340138 260.084279 
L 419.472443 270.05351 
L 420.604748 283.345817 
L 421.737054 289.991971 
L 422.869359 286.668894 
L 424.001664 250.115048 
L 425.133969 260.084279 
L 426.266274 266.730433 
L 427.39858 260.084279 
L 429.66319 299.961202 
L 430.795495 270.05351 
L 431.9278 280.02274 
L 433.060106 319.899663 
L 434.192411 323.22274 
L 435.324716 309.930433 
L 437.589326 329.868894 
L 438.721631 323.22274 
L 439.853937 329.868894 
L 440.986242 289.991971 
L 442.118547 260.084279 
L 443.250852 260.084279 
L 444.383157 283.345817 
L 446.647768 276.699663 
L 447.780073 266.730433 
L 448.912378 280.02274 
L 450.044683 273.376587 
L 451.176989 293.315048 
L 452.309294 256.761202 
L 453.441599 256.761202 
L 454.573904 293.315048 
L 455.706209 289.991971 
L 456.838515 299.961202 
L 457.97082 289.991971 
L 459.103125 276.699663 
L 460.23543 309.930433 
L 461.367735 313.25351 
L 462.500041 309.930433 
L 463.632346 319.899663 
L 464.764651 316.576587 
L 465.896956 323.22274 
L 467.029261 306.607356 
L 468.161567 270.05351 
L 469.293872 303.284279 
L 470.426177 299.961202 
L 472.690787 266.730433 
L 473.823093 270.05351 
L 474.955398 260.084279 
L 476.087703 303.284279 
L 477.220008 263.407356 
L 478.352313 263.407356 
L 479.484619 283.345817 
L 480.616924 240.145817 
L 481.749229 293.315048 
L 482.881534 276.699663 
L 484.013839 303.284279 
L 485.146144 263.407356 
L 486.27845 270.05351 
L 487.410755 286.668894 
L 488.54306 319.899663 
L 489.675365 316.576587 
L 490.80767 319.899663 
L 491.939976 329.868894 
L 494.204586 309.930433 
L 495.336891 306.607356 
L 496.469196 316.576587 
L 497.601502 296.638125 
L 498.733807 293.315048 
L 499.866112 270.05351 
L 500.998417 276.699663 
L 502.130722 299.961202 
L 503.263028 296.638125 
L 505.527638 236.82274 
L 506.659943 266.730433 
L 507.792248 283.345817 
L 508.924554 280.02274 
L 510.056859 299.961202 
L 511.189164 299.961202 
L 512.321469 263.407356 
L 513.453774 296.638125 
L 514.58608 286.668894 
L 515.718385 283.345817 
L 516.85069 283.345817 
L 517.982995 296.638125 
L 519.1153 319.899663 
L 520.247606 316.576587 
L 521.379911 329.868894 
L 523.644521 296.638125 
L 525.909131 309.930433 
L 527.041437 273.376587 
L 528.173742 289.991971 
L 529.306047 303.284279 
L 530.438352 289.991971 
L 531.570657 293.315048 
L 532.702963 266.730433 
L 533.835268 280.02274 
L 534.967573 286.668894 
L 536.099878 289.991971 
L 537.232183 296.638125 
L 538.364489 309.930433 
L 539.496794 299.961202 
L 540.629099 303.284279 
L 541.761404 286.668894 
L 542.893709 306.607356 
L 544.026015 303.284279 
L 545.15832 306.607356 
L 546.290625 326.545817 
L 547.42293 323.22274 
L 548.555235 336.515048 
L 549.687541 303.284279 
L 550.819846 286.668894 
L 551.952151 313.25351 
L 553.084456 316.576587 
L 554.216761 309.930433 
L 555.349067 309.930433 
L 556.481372 326.545817 
L 557.613677 293.315048 
L 558.745982 289.991971 
L 559.878287 289.991971 
L 561.010593 296.638125 
L 562.142898 289.991971 
L 563.275203 309.930433 
L 564.407508 293.315048 
L 565.539813 293.315048 
L 566.672119 280.02274 
L 567.804424 313.25351 
L 568.936729 296.638125 
L 570.069034 296.638125 
L 571.201339 313.25351 
L 572.333644 309.930433 
L 573.46595 336.515048 
L 574.598255 333.191971 
L 575.73056 336.515048 
L 577.99517 303.284279 
L 579.127476 289.991971 
L 580.259781 313.25351 
L 581.392086 289.991971 
L 582.524391 309.930433 
L 583.656696 299.961202 
L 584.789002 273.376587 
L 585.921307 263.407356 
L 587.053612 286.668894 
L 588.185917 286.668894 
L 589.318222 263.407356 
L 590.450528 286.668894 
L 591.582833 296.638125 
L 592.715138 283.345817 
L 593.847443 286.668894 
L 594.979748 243.468894 
L 596.112054 306.607356 
L 597.244359 333.191971 
L 598.376664 323.22274 
L 599.508969 309.930433 
L 600.641274 329.868894 
L 601.77358 326.545817 
L 602.905885 313.25351 
L 604.03819 306.607356 
L 605.170495 283.345817 
L 606.3028 293.315048 
L 607.435106 293.315048 
L 608.567411 263.407356 
L 609.699716 273.376587 
L 610.832021 273.376587 
L 611.964326 266.730433 
L 613.096631 270.05351 
L 614.228937 270.05351 
L 615.361242 286.668894 
L 616.493547 256.761202 
L 617.625852 293.315048 
L 618.758157 276.699663 
L 619.890463 276.699663 
L 621.022768 286.668894 
L 622.155073 280.02274 
L 623.287378 299.961202 
L 624.419683 299.961202 
L 625.551989 293.315048 
L 626.684294 323.22274 
L 627.816599 329.868894 
L 628.948904 329.868894 
L 630.081209 319.899663 
L 631.213515 283.345817 
L 632.34582 289.991971 
L 634.61043 316.576587 
L 635.742735 289.991971 
L 636.875041 270.05351 
L 638.007346 270.05351 
L 639.139651 246.791971 
L 640.271956 273.376587 
L 641.404261 250.115048 
L 642.536567 256.761202 
L 643.668872 233.499663 
L 644.801177 276.699663 
L 645.933482 280.02274 
L 648.198093 273.376587 
L 649.330398 250.115048 
L 650.462703 293.315048 
L 651.595008 309.930433 
L 652.727313 316.576587 
L 653.859619 296.638125 
L 654.991924 299.961202 
L 656.124229 306.607356 
L 657.256534 333.191971 
L 659.521144 280.02274 
L 660.65345 309.930433 
L 661.785755 299.961202 
L 662.91806 276.699663 
L 664.050365 303.284279 
L 665.18267 289.991971 
L 666.314976 283.345817 
L 667.447281 289.991971 
L 668.579586 286.668894 
L 669.711891 263.407356 
L 670.844196 283.345817 
L 671.976502 289.991971 
L 673.108807 306.607356 
L 674.241112 309.930433 
L 675.373417 306.607356 
L 676.505722 260.084279 
L 677.638028 289.991971 
L 678.770333 309.930433 
L 679.902638 299.961202 
L 681.034943 316.576587 
L 682.167248 319.899663 
L 683.299554 329.868894 
L 684.431859 316.576587 
L 685.564164 316.576587 
L 686.696469 299.961202 
L 687.828774 296.638125 
L 688.96108 306.607356 
L 690.093385 276.699663 
L 691.22569 286.668894 
L 692.357995 289.991971 
L 693.4903 286.668894 
L 694.622606 303.284279 
L 695.754911 276.699663 
L 696.887216 266.730433 
L 698.019521 260.084279 
L 699.151826 270.05351 
L 700.284131 286.668894 
L 701.416437 299.961202 
L 702.548742 273.376587 
L 703.681047 253.438125 
L 704.813352 289.991971 
L 705.945657 270.05351 
L 707.077963 289.991971 
L 708.210268 280.02274 
L 709.342573 283.345817 
L 710.474878 316.576587 
L 711.607183 326.545817 
L 712.739489 309.930433 
L 713.871794 309.930433 
L 715.004099 303.284279 
L 716.136404 289.991971 
L 717.268709 293.315048 
L 718.401015 276.699663 
L 719.53332 296.638125 
L 720.665625 283.345817 
L 721.79793 280.02274 
L 722.930235 283.345817 
L 724.062541 296.638125 
L 725.194846 293.315048 
L 726.327151 303.284279 
L 727.459456 289.991971 
L 729.724067 283.345817 
L 730.856372 293.315048 
L 731.988677 299.961202 
L 733.120982 280.02274 
L 734.253287 286.668894 
L 735.385593 306.607356 
L 736.517898 313.25351 
L 737.650203 326.545817 
L 738.782508 313.25351 
L 741.047119 319.899663 
L 742.179424 313.25351 
L 743.311729 323.22274 
L 744.444034 303.284279 
L 745.576339 303.284279 
L 746.708644 306.607356 
L 747.84095 283.345817 
L 748.973255 286.668894 
L 750.10556 280.02274 
L 751.237865 276.699663 
L 752.37017 286.668894 
L 753.502476 313.25351 
L 754.634781 296.638125 
L 755.767086 316.576587 
L 756.899391 299.961202 
L 758.031696 273.376587 
L 759.164002 313.25351 
L 760.296307 319.899663 
L 761.428612 306.607356 
L 762.560917 319.899663 
L 763.693222 319.899663 
L 764.825528 323.22274 
L 765.957833 313.25351 
L 767.090138 299.961202 
L 768.222443 316.576587 
L 769.354748 293.315048 
L 770.487054 313.25351 
L 771.619359 283.345817 
L 772.751664 303.284279 
L 773.883969 303.284279 
L 775.016274 270.05351 
L 776.14858 273.376587 
L 777.280885 309.930433 
L 778.41319 299.961202 
L 779.545495 276.699663 
L 780.6778 273.376587 
L 781.810106 256.761202 
L 782.942411 306.607356 
L 784.074716 299.961202 
L 785.207021 299.961202 
L 786.339326 326.545817 
L 787.471631 326.545817 
L 788.603937 319.899663 
L 789.736242 336.515048 
L 790.868547 336.515048 
L 792.000852 323.22274 
L 793.133157 319.899663 
L 794.265463 293.315048 
L 795.397768 299.961202 
L 796.530073 299.961202 
L 797.662378 293.315048 
L 798.794683 280.02274 
L 799.926989 289.991971 
L 801.059294 250.115048 
L 802.191599 256.761202 
L 803.323904 250.115048 
L 804.456209 276.699663 
L 805.588515 283.345817 
L 806.72082 266.730433 
L 807.853125 286.668894 
L 808.98543 266.730433 
L 810.117735 286.668894 
L 811.250041 293.315048 
L 812.382346 289.991971 
L 813.514651 323.22274 
L 814.646956 326.545817 
L 815.779261 296.638125 
L 816.911567 316.576587 
L 818.043872 333.191971 
L 819.176177 319.899663 
L 820.308482 309.930433 
L 821.440787 293.315048 
L 822.573093 280.02274 
L 824.837703 299.961202 
L 825.970008 270.05351 
L 827.102313 306.607356 
L 828.234619 276.699663 
L 829.366924 260.084279 
L 830.499229 286.668894 
L 831.631534 263.407356 
L 832.763839 276.699663 
L 833.896144 263.407356 
L 835.02845 276.699663 
L 837.29306 296.638125 
L 838.425365 289.991971 
L 839.55767 203.591971 
L 839.55767 203.591971 
" clip-path="url(#p9730f5beaf)" style="fill: none; stroke: #1f77b4; stroke-opacity: 0.5; stroke-width: 1.5; stroke-linecap: square"/>
   </g>
   <g id="line2d_15">
    <path d="M 78.64858 37.438125 
L 79.780885 280.02274 
L 80.91319 289.991971 
L 82.045495 293.315048 
L 83.1778 326.545817 
L 84.310106 313.25351 
L 85.442411 326.545817 
L 86.574716 266.730433 
L 87.707021 250.115048 
L 88.839326 253.438125 
L 89.971631 233.499663 
L 91.103937 256.761202 
L 92.236242 143.776587 
L 93.368547 226.85351 
L 94.500852 223.530433 
L 95.633157 147.099663 
L 96.765463 160.391971 
L 97.897768 190.299663 
L 99.030073 203.591971 
L 100.162378 183.65351 
L 101.294683 183.65351 
L 102.426989 243.468894 
L 103.559294 246.791971 
L 104.691599 243.468894 
L 105.823904 183.65351 
L 106.956209 286.668894 
L 108.088515 293.315048 
L 109.22082 303.284279 
L 110.353125 293.315048 
L 111.48543 309.930433 
L 112.617735 316.576587 
L 113.750041 276.699663 
L 114.882346 276.699663 
L 116.014651 280.02274 
L 117.146956 246.791971 
L 118.279261 220.207356 
L 119.411567 230.176587 
L 120.543872 236.82274 
L 121.676177 230.176587 
L 122.808482 183.65351 
L 123.940787 220.207356 
L 125.073093 216.884279 
L 126.205398 143.776587 
L 127.337703 226.85351 
L 128.470008 240.145817 
L 129.602313 246.791971 
L 130.734619 243.468894 
L 131.866924 253.438125 
L 132.999229 216.884279 
L 134.131534 260.084279 
L 135.263839 256.761202 
L 136.396144 273.376587 
L 138.660755 299.961202 
L 139.79306 309.930433 
L 140.925365 296.638125 
L 142.05767 299.961202 
L 143.189976 266.730433 
L 144.322281 256.761202 
L 145.454586 256.761202 
L 146.586891 210.238125 
L 147.719196 253.438125 
L 148.851502 240.145817 
L 149.983807 216.884279 
L 151.116112 206.915048 
L 152.248417 210.238125 
L 153.380722 206.915048 
L 154.513028 213.561202 
L 155.645333 193.62274 
L 156.777638 240.145817 
L 157.909943 220.207356 
L 159.042248 243.468894 
L 160.174554 233.499663 
L 161.306859 250.115048 
L 162.439164 240.145817 
L 163.571469 250.115048 
L 164.703774 253.438125 
L 165.83608 293.315048 
L 166.968385 289.991971 
L 168.10069 309.930433 
L 169.232995 283.345817 
L 170.3653 309.930433 
L 172.629911 256.761202 
L 173.762216 270.05351 
L 174.894521 276.699663 
L 176.026826 243.468894 
L 177.159131 203.591971 
L 178.291437 216.884279 
L 179.423742 206.915048 
L 180.556047 233.499663 
L 181.688352 240.145817 
L 182.820657 233.499663 
L 183.952963 289.991971 
L 185.085268 236.82274 
L 186.217573 246.791971 
L 187.349878 196.945817 
L 188.482183 253.438125 
L 189.614489 260.084279 
L 190.746794 303.284279 
L 191.879099 289.991971 
L 193.011404 306.607356 
L 194.143709 306.607356 
L 195.276015 289.991971 
L 196.40832 286.668894 
L 197.540625 266.730433 
L 198.67293 266.730433 
L 199.805235 223.530433 
L 200.937541 220.207356 
L 202.069846 213.561202 
L 203.202151 260.084279 
L 204.334456 196.945817 
L 205.466761 226.85351 
L 206.599067 226.85351 
L 207.731372 203.591971 
L 208.863677 213.561202 
L 209.995982 246.791971 
L 211.128287 243.468894 
L 212.260593 276.699663 
L 213.392898 256.761202 
L 214.525203 303.284279 
L 215.657508 276.699663 
L 216.789813 306.607356 
L 217.922119 306.607356 
L 219.054424 316.576587 
L 220.186729 329.868894 
L 221.319034 326.545817 
L 223.583644 273.376587 
L 224.71595 260.084279 
L 225.848255 236.82274 
L 226.98056 270.05351 
L 228.112865 230.176587 
L 229.24517 206.915048 
L 230.377476 173.684279 
L 231.509781 206.915048 
L 232.642086 200.268894 
L 233.774391 186.976587 
L 236.039002 220.207356 
L 238.303612 226.85351 
L 239.435917 250.115048 
L 240.568222 260.084279 
L 241.700528 256.761202 
L 242.832833 289.991971 
L 243.965138 303.284279 
L 245.097443 286.668894 
L 246.229748 306.607356 
L 247.362054 323.22274 
L 248.494359 319.899663 
L 249.626664 303.284279 
L 250.758969 270.05351 
L 251.891274 260.084279 
L 253.02358 240.145817 
L 254.155885 256.761202 
L 255.28819 220.207356 
L 256.420495 210.238125 
L 257.5528 226.85351 
L 258.685106 203.591971 
L 259.817411 203.591971 
L 260.949716 206.915048 
L 262.082021 190.299663 
L 263.214326 240.145817 
L 264.346631 230.176587 
L 265.478937 270.05351 
L 266.611242 223.530433 
L 267.743547 250.115048 
L 268.875852 263.407356 
L 270.008157 299.961202 
L 272.272768 319.899663 
L 273.405073 289.991971 
L 274.537378 323.22274 
L 275.669683 316.576587 
L 276.801989 289.991971 
L 277.934294 236.82274 
L 279.066599 246.791971 
L 280.198904 270.05351 
L 281.331209 243.468894 
L 282.463515 220.207356 
L 283.59582 183.65351 
L 284.728125 193.62274 
L 285.86043 160.391971 
L 286.992735 200.268894 
L 288.125041 210.238125 
L 289.257346 193.62274 
L 290.389651 240.145817 
L 291.521956 220.207356 
L 292.654261 253.438125 
L 293.786567 240.145817 
L 294.918872 280.02274 
L 296.051177 260.084279 
L 297.183482 303.284279 
L 298.315787 273.376587 
L 299.448093 273.376587 
L 300.580398 296.638125 
L 301.712703 306.607356 
L 303.977313 313.25351 
L 305.109619 266.730433 
L 306.241924 263.407356 
L 307.374229 243.468894 
L 308.506534 236.82274 
L 309.638839 223.530433 
L 310.771144 240.145817 
L 311.90345 243.468894 
L 313.035755 183.65351 
L 314.16806 210.238125 
L 315.300365 200.268894 
L 316.43267 196.945817 
L 317.564976 226.85351 
L 318.697281 196.945817 
L 319.829586 216.884279 
L 320.961891 240.145817 
L 322.094196 216.884279 
L 323.226502 243.468894 
L 324.358807 246.791971 
L 325.491112 273.376587 
L 326.623417 270.05351 
L 327.755722 256.761202 
L 328.888028 283.345817 
L 330.020333 293.315048 
L 331.152638 326.545817 
L 332.284943 253.438125 
L 333.417248 260.084279 
L 334.549554 280.02274 
L 335.681859 250.115048 
L 336.814164 243.468894 
L 337.946469 233.499663 
L 339.078774 260.084279 
L 340.21108 246.791971 
L 341.343385 246.791971 
L 342.47569 236.82274 
L 343.607995 243.468894 
L 344.7403 193.62274 
L 345.872606 223.530433 
L 347.004911 236.82274 
L 348.137216 233.499663 
L 349.269521 246.791971 
L 350.401826 220.207356 
L 351.534131 246.791971 
L 352.666437 240.145817 
L 353.798742 256.761202 
L 354.931047 243.468894 
L 356.063352 289.991971 
L 357.195657 319.899663 
L 358.327963 309.930433 
L 359.460268 296.638125 
L 360.592573 280.02274 
L 361.724878 260.084279 
L 362.857183 253.438125 
L 363.989489 236.82274 
L 365.121794 260.084279 
L 366.254099 273.376587 
L 367.386404 256.761202 
L 368.518709 256.761202 
L 370.78332 236.82274 
L 371.915625 220.207356 
L 373.04793 196.945817 
L 374.180235 220.207356 
L 375.312541 223.530433 
L 376.444846 273.376587 
L 377.577151 236.82274 
L 379.841761 306.607356 
L 380.974067 299.961202 
L 382.106372 303.284279 
L 383.238677 326.545817 
L 384.370982 316.576587 
L 385.503287 303.284279 
L 386.635593 253.438125 
L 387.767898 273.376587 
L 388.900203 226.85351 
L 390.032508 253.438125 
L 391.164813 190.299663 
L 392.297119 263.407356 
L 393.429424 200.268894 
L 394.561729 180.330433 
L 395.694034 177.007356 
L 396.826339 250.115048 
L 397.958644 196.945817 
L 399.09095 213.561202 
L 400.223255 236.82274 
L 401.35556 230.176587 
L 402.487865 216.884279 
L 403.62017 299.961202 
L 404.752476 286.668894 
L 405.884781 289.991971 
L 407.017086 299.961202 
L 408.149391 299.961202 
L 409.281696 323.22274 
L 410.414002 323.22274 
L 411.546307 309.930433 
L 412.678612 313.25351 
L 413.810917 256.761202 
L 414.943222 273.376587 
L 416.075528 236.82274 
L 417.207833 226.85351 
L 418.340138 196.945817 
L 419.472443 243.468894 
L 420.604748 226.85351 
L 421.737054 170.361202 
L 422.869359 223.530433 
L 424.001664 203.591971 
L 425.133969 200.268894 
L 426.266274 206.915048 
L 427.39858 223.530433 
L 428.530885 233.499663 
L 429.66319 246.791971 
L 430.795495 263.407356 
L 431.9278 233.499663 
L 433.060106 253.438125 
L 434.192411 283.345817 
L 435.324716 289.991971 
L 436.457021 316.576587 
L 437.589326 306.607356 
L 438.721631 306.607356 
L 439.853937 323.22274 
L 440.986242 296.638125 
L 442.118547 246.791971 
L 443.250852 236.82274 
L 444.383157 260.084279 
L 445.515463 220.207356 
L 446.647768 196.945817 
L 447.780073 243.468894 
L 448.912378 220.207356 
L 450.044683 213.561202 
L 451.176989 183.65351 
L 452.309294 150.42274 
L 453.441599 167.038125 
L 454.573904 186.976587 
L 455.706209 210.238125 
L 456.838515 220.207356 
L 457.97082 246.791971 
L 459.103125 210.238125 
L 460.23543 273.376587 
L 461.367735 286.668894 
L 462.500041 289.991971 
L 463.632346 316.576587 
L 464.764651 319.899663 
L 465.896956 309.930433 
L 467.029261 289.991971 
L 468.161567 243.468894 
L 469.293872 250.115048 
L 470.426177 270.05351 
L 471.558482 226.85351 
L 472.690787 203.591971 
L 473.823093 160.391971 
L 474.955398 193.62274 
L 476.087703 147.099663 
L 477.220008 177.007356 
L 478.352313 143.776587 
L 479.484619 173.684279 
L 480.616924 180.330433 
L 481.749229 190.299663 
L 482.881534 183.65351 
L 484.013839 236.82274 
L 485.146144 236.82274 
L 486.27845 230.176587 
L 487.410755 266.730433 
L 488.54306 296.638125 
L 489.675365 303.284279 
L 490.80767 289.991971 
L 493.072281 316.576587 
L 494.204586 286.668894 
L 496.469196 273.376587 
L 497.601502 286.668894 
L 498.733807 250.115048 
L 499.866112 246.791971 
L 500.998417 230.176587 
L 502.130722 253.438125 
L 503.263028 183.65351 
L 504.395333 213.561202 
L 505.527638 183.65351 
L 506.659943 230.176587 
L 507.792248 213.561202 
L 508.924554 177.007356 
L 510.056859 183.65351 
L 511.189164 210.238125 
L 512.321469 230.176587 
L 513.453774 233.499663 
L 514.58608 263.407356 
L 515.718385 226.85351 
L 516.85069 260.084279 
L 517.982995 266.730433 
L 519.1153 306.607356 
L 520.247606 309.930433 
L 521.379911 323.22274 
L 522.512216 276.699663 
L 523.644521 299.961202 
L 524.776826 246.791971 
L 525.909131 246.791971 
L 527.041437 220.207356 
L 528.173742 236.82274 
L 529.306047 206.915048 
L 530.438352 230.176587 
L 531.570657 226.85351 
L 532.702963 206.915048 
L 533.835268 213.561202 
L 534.967573 200.268894 
L 536.099878 236.82274 
L 539.496794 256.761202 
L 540.629099 256.761202 
L 541.761404 266.730433 
L 542.893709 223.530433 
L 544.026015 270.05351 
L 545.15832 250.115048 
L 546.290625 280.02274 
L 547.42293 323.22274 
L 548.555235 309.930433 
L 549.687541 299.961202 
L 550.819846 306.607356 
L 551.952151 283.345817 
L 553.084456 276.699663 
L 554.216761 266.730433 
L 555.349067 246.791971 
L 556.481372 213.561202 
L 557.613677 226.85351 
L 558.745982 256.761202 
L 559.878287 226.85351 
L 562.142898 233.499663 
L 563.275203 223.530433 
L 564.407508 226.85351 
L 565.539813 243.468894 
L 566.672119 233.499663 
L 567.804424 256.761202 
L 568.936729 289.991971 
L 570.069034 253.438125 
L 571.201339 296.638125 
L 572.333644 299.961202 
L 573.46595 316.576587 
L 574.598255 313.25351 
L 575.73056 333.191971 
L 576.862865 296.638125 
L 577.99517 273.376587 
L 579.127476 276.699663 
L 580.259781 230.176587 
L 581.392086 230.176587 
L 582.524391 240.145817 
L 583.656696 226.85351 
L 584.789002 210.238125 
L 585.921307 216.884279 
L 587.053612 200.268894 
L 588.185917 206.915048 
L 589.318222 226.85351 
L 590.450528 223.530433 
L 591.582833 230.176587 
L 592.715138 263.407356 
L 593.847443 233.499663 
L 594.979748 266.730433 
L 596.112054 306.607356 
L 597.244359 286.668894 
L 598.376664 313.25351 
L 599.508969 296.638125 
L 600.641274 316.576587 
L 601.77358 309.930433 
L 602.905885 309.930433 
L 604.03819 280.02274 
L 605.170495 263.407356 
L 606.3028 230.176587 
L 607.435106 240.145817 
L 608.567411 177.007356 
L 609.699716 260.084279 
L 610.832021 230.176587 
L 611.964326 240.145817 
L 613.096631 173.684279 
L 614.228937 210.238125 
L 615.361242 163.715048 
L 616.493547 186.976587 
L 617.625852 216.884279 
L 618.758157 180.330433 
L 619.890463 206.915048 
L 621.022768 253.438125 
L 622.155073 210.238125 
L 623.287378 270.05351 
L 624.419683 280.02274 
L 625.551989 296.638125 
L 626.684294 303.284279 
L 627.816599 319.899663 
L 630.081209 313.25351 
L 631.213515 250.115048 
L 632.34582 246.791971 
L 633.478125 246.791971 
L 634.61043 273.376587 
L 635.742735 210.238125 
L 636.875041 213.561202 
L 638.007346 186.976587 
L 639.139651 213.561202 
L 640.271956 186.976587 
L 641.404261 203.591971 
L 642.536567 150.42274 
L 643.668872 190.299663 
L 644.801177 200.268894 
L 645.933482 226.85351 
L 647.065787 236.82274 
L 648.198093 233.499663 
L 649.330398 196.945817 
L 650.462703 260.084279 
L 651.595008 286.668894 
L 652.727313 266.730433 
L 653.859619 289.991971 
L 654.991924 319.899663 
L 656.124229 303.284279 
L 657.256534 293.315048 
L 658.388839 306.607356 
L 659.521144 273.376587 
L 660.65345 210.238125 
L 661.785755 250.115048 
L 662.91806 210.238125 
L 664.050365 230.176587 
L 665.18267 246.791971 
L 666.314976 203.591971 
L 667.447281 226.85351 
L 668.579586 203.591971 
L 669.711891 157.068894 
L 670.844196 167.038125 
L 671.976502 147.099663 
L 673.108807 230.176587 
L 674.241112 270.05351 
L 675.373417 236.82274 
L 676.505722 266.730433 
L 677.638028 263.407356 
L 678.770333 293.315048 
L 679.902638 273.376587 
L 681.034943 289.991971 
L 682.167248 329.868894 
L 683.299554 306.607356 
L 684.431859 286.668894 
L 685.564164 286.668894 
L 686.696469 276.699663 
L 687.828774 263.407356 
L 688.96108 256.761202 
L 690.093385 210.238125 
L 691.22569 250.115048 
L 692.357995 243.468894 
L 693.4903 196.945817 
L 694.622606 220.207356 
L 695.754911 170.361202 
L 696.887216 183.65351 
L 698.019521 220.207356 
L 699.151826 193.62274 
L 700.284131 240.145817 
L 701.416437 220.207356 
L 702.548742 193.62274 
L 703.681047 226.85351 
L 704.813352 236.82274 
L 705.945657 216.884279 
L 707.077963 289.991971 
L 708.210268 236.82274 
L 709.342573 289.991971 
L 710.474878 323.22274 
L 711.607183 299.961202 
L 712.739489 293.315048 
L 713.871794 283.345817 
L 715.004099 299.961202 
L 716.136404 273.376587 
L 717.268709 223.530433 
L 718.401015 220.207356 
L 719.53332 220.207356 
L 720.665625 240.145817 
L 721.79793 246.791971 
L 722.930235 236.82274 
L 724.062541 186.976587 
L 725.194846 220.207356 
L 726.327151 220.207356 
L 727.459456 216.884279 
L 728.591761 230.176587 
L 729.724067 246.791971 
L 730.856372 210.238125 
L 731.988677 256.761202 
L 733.120982 236.82274 
L 734.253287 226.85351 
L 735.385593 226.85351 
L 736.517898 270.05351 
L 737.650203 319.899663 
L 738.782508 333.191971 
L 739.914813 306.607356 
L 741.047119 276.699663 
L 742.179424 286.668894 
L 743.311729 266.730433 
L 744.444034 250.115048 
L 745.576339 276.699663 
L 746.708644 276.699663 
L 747.84095 243.468894 
L 748.973255 256.761202 
L 750.10556 266.730433 
L 751.237865 220.207356 
L 752.37017 183.65351 
L 753.502476 220.207356 
L 754.634781 236.82274 
L 755.767086 246.791971 
L 756.899391 266.730433 
L 758.031696 270.05351 
L 759.164002 280.02274 
L 760.296307 283.345817 
L 761.428612 326.545817 
L 762.560917 313.25351 
L 763.693222 309.930433 
L 764.825528 319.899663 
L 765.957833 316.576587 
L 767.090138 260.084279 
L 768.222443 260.084279 
L 769.354748 263.407356 
L 770.487054 223.530433 
L 771.619359 203.591971 
L 772.751664 210.238125 
L 773.883969 260.084279 
L 775.016274 150.42274 
L 776.14858 216.884279 
L 777.280885 220.207356 
L 778.41319 200.268894 
L 779.545495 186.976587 
L 780.6778 210.238125 
L 781.810106 240.145817 
L 782.942411 243.468894 
L 784.074716 236.82274 
L 785.207021 293.315048 
L 786.339326 283.345817 
L 787.471631 306.607356 
L 788.603937 319.899663 
L 789.736242 326.545817 
L 790.868547 323.22274 
L 792.000852 323.22274 
L 793.133157 303.284279 
L 794.265463 286.668894 
L 795.397768 256.761202 
L 796.530073 236.82274 
L 797.662378 276.699663 
L 798.794683 210.238125 
L 799.926989 243.468894 
L 801.059294 220.207356 
L 802.191599 203.591971 
L 803.323904 143.776587 
L 804.456209 216.884279 
L 805.588515 167.038125 
L 806.72082 210.238125 
L 808.98543 236.82274 
L 810.117735 233.499663 
L 811.250041 280.02274 
L 812.382346 206.915048 
L 813.514651 299.961202 
L 814.646956 280.02274 
L 815.779261 296.638125 
L 816.911567 309.930433 
L 818.043872 313.25351 
L 819.176177 319.899663 
L 820.308482 289.991971 
L 821.440787 243.468894 
L 822.573093 280.02274 
L 823.705398 246.791971 
L 824.837703 236.82274 
L 825.970008 216.884279 
L 827.102313 203.591971 
L 828.234619 196.945817 
L 829.366924 180.330433 
L 830.499229 167.038125 
L 831.631534 167.038125 
L 832.763839 163.715048 
L 833.896144 216.884279 
L 835.02845 206.915048 
L 836.160755 260.084279 
L 837.29306 246.791971 
L 838.425365 256.761202 
L 839.55767 60.699663 
L 839.55767 60.699663 
" clip-path="url(#p9730f5beaf)" style="fill: none; stroke: #ff7f0e; stroke-opacity: 0.5; stroke-width: 1.5; stroke-linecap: square"/>
   </g>
   <g id="line2d_16">
    <path d="M 78.64858 309.930433 
L 79.780885 336.515048 
L 80.91319 329.868894 
L 82.045495 339.838125 
L 85.442411 339.838125 
L 86.574716 336.515048 
L 87.707021 289.991971 
L 88.839326 296.638125 
L 89.971631 276.699663 
L 91.103937 309.930433 
L 92.236242 289.991971 
L 93.368547 303.284279 
L 94.500852 286.668894 
L 95.633157 273.376587 
L 96.765463 289.991971 
L 97.897768 296.638125 
L 99.030073 306.607356 
L 100.162378 299.961202 
L 101.294683 299.961202 
L 102.426989 286.668894 
L 103.559294 313.25351 
L 104.691599 333.191971 
L 105.823904 306.607356 
L 106.956209 333.191971 
L 108.088515 336.515048 
L 109.22082 329.868894 
M 111.48543 333.191971 
L 112.617735 339.838125 
L 113.750041 323.22274 
L 114.882346 323.22274 
L 116.014651 306.607356 
L 117.146956 299.961202 
L 118.279261 309.930433 
L 119.411567 323.22274 
L 120.543872 306.607356 
L 121.676177 306.607356 
L 122.808482 299.961202 
L 123.940787 313.25351 
L 125.073093 316.576587 
L 126.205398 299.961202 
L 127.337703 319.899663 
L 128.470008 303.284279 
L 129.602313 319.899663 
L 130.734619 333.191971 
L 134.131534 313.25351 
L 135.263839 316.576587 
L 136.396144 326.545817 
L 137.52845 333.191971 
L 138.660755 336.515048 
L 139.79306 329.868894 
L 142.05767 323.22274 
L 143.189976 303.284279 
L 144.322281 309.930433 
L 145.454586 309.930433 
L 146.586891 293.315048 
L 147.719196 326.545817 
L 148.851502 296.638125 
L 149.983807 313.25351 
L 151.116112 323.22274 
L 152.248417 323.22274 
L 153.380722 316.576587 
L 154.513028 326.545817 
L 155.645333 309.930433 
L 156.777638 319.899663 
L 157.909943 323.22274 
L 159.042248 309.930433 
L 160.174554 309.930433 
L 161.306859 319.899663 
L 162.439164 333.191971 
L 163.571469 329.868894 
L 165.83608 329.868894 
L 166.968385 336.515048 
L 168.10069 336.515048 
L 169.232995 313.25351 
L 170.3653 326.545817 
L 171.497606 329.868894 
L 172.629911 316.576587 
L 173.762216 286.668894 
L 174.894521 329.868894 
L 176.026826 299.961202 
L 177.159131 329.868894 
L 178.291437 319.899663 
L 179.423742 299.961202 
L 180.556047 313.25351 
L 182.820657 319.899663 
L 183.952963 326.545817 
L 185.085268 319.899663 
L 186.217573 329.868894 
L 187.349878 319.899663 
L 188.482183 329.868894 
L 189.614489 329.868894 
L 190.746794 333.191971 
L 191.879099 333.191971 
L 193.011404 336.515048 
L 194.143709 333.191971 
L 195.276015 306.607356 
L 196.40832 326.545817 
L 197.540625 313.25351 
L 198.67293 313.25351 
L 199.805235 299.961202 
L 200.937541 323.22274 
L 202.069846 313.25351 
L 203.202151 306.607356 
L 204.334456 296.638125 
L 205.466761 316.576587 
L 206.599067 286.668894 
L 207.731372 306.607356 
L 208.863677 283.345817 
L 209.995982 319.899663 
L 211.128287 296.638125 
L 212.260593 326.545817 
L 213.392898 333.191971 
L 214.525203 333.191971 
L 215.657508 339.838125 
L 216.789813 336.515048 
L 217.922119 336.515048 
M 220.186729 339.838125 
L 221.319034 339.838125 
L 222.451339 319.899663 
L 223.583644 303.284279 
L 224.71595 306.607356 
L 225.848255 313.25351 
L 226.98056 303.284279 
L 228.112865 299.961202 
L 229.24517 299.961202 
L 230.377476 303.284279 
L 231.509781 299.961202 
L 232.642086 289.991971 
L 233.774391 309.930433 
L 234.906696 296.638125 
L 236.039002 289.991971 
L 237.171307 309.930433 
L 238.303612 323.22274 
L 239.435917 316.576587 
L 241.700528 336.515048 
L 242.832833 336.515048 
L 243.965138 329.868894 
L 245.097443 339.838125 
L 246.229748 339.838125 
L 248.494359 333.191971 
L 249.626664 316.576587 
L 250.758969 326.545817 
L 251.891274 299.961202 
L 253.02358 319.899663 
L 254.155885 306.607356 
L 255.28819 313.25351 
L 256.420495 296.638125 
L 257.5528 323.22274 
L 258.685106 289.991971 
L 259.817411 313.25351 
L 262.082021 313.25351 
L 263.214326 303.284279 
L 265.478937 323.22274 
L 266.611242 313.25351 
L 267.743547 329.868894 
L 268.875852 323.22274 
L 271.140463 336.515048 
L 272.272768 336.515048 
L 273.405073 339.838125 
L 274.537378 339.838125 
L 275.669683 336.515048 
L 279.066599 316.576587 
L 280.198904 319.899663 
L 281.331209 309.930433 
L 282.463515 309.930433 
L 283.59582 339.838125 
L 284.728125 306.607356 
L 285.86043 306.607356 
L 286.992735 293.315048 
L 288.125041 293.315048 
L 289.257346 280.02274 
L 291.521956 313.25351 
L 292.654261 309.930433 
L 293.786567 319.899663 
L 294.918872 319.899663 
L 296.051177 309.930433 
L 297.183482 339.838125 
L 298.315787 333.191971 
L 299.448093 333.191971 
M 301.712703 336.515048 
L 302.845008 323.22274 
L 303.977313 333.191971 
L 306.241924 306.607356 
L 307.374229 306.607356 
L 308.506534 299.961202 
L 309.638839 313.25351 
L 310.771144 306.607356 
L 311.90345 293.315048 
L 314.16806 299.961202 
L 315.300365 326.545817 
L 316.43267 329.868894 
L 317.564976 323.22274 
L 318.697281 293.315048 
L 319.829586 326.545817 
L 320.961891 319.899663 
L 322.094196 323.22274 
L 323.226502 336.515048 
L 324.358807 336.515048 
L 327.755722 326.545817 
L 328.888028 326.545817 
L 330.020333 336.515048 
L 331.152638 329.868894 
L 332.284943 329.868894 
L 333.417248 336.515048 
L 334.549554 323.22274 
L 335.681859 296.638125 
L 336.814164 289.991971 
L 337.946469 323.22274 
L 339.078774 309.930433 
L 340.21108 286.668894 
L 341.343385 296.638125 
L 342.47569 296.638125 
L 343.607995 316.576587 
L 344.7403 313.25351 
L 345.872606 306.607356 
L 347.004911 309.930433 
L 348.137216 306.607356 
L 349.269521 306.607356 
L 350.401826 336.515048 
L 351.534131 339.838125 
L 352.666437 323.22274 
L 353.798742 326.545817 
L 354.931047 333.191971 
L 356.063352 336.515048 
M 358.327963 336.515048 
L 359.460268 326.545817 
L 361.724878 333.191971 
L 362.857183 306.607356 
L 363.989489 313.25351 
L 365.121794 313.25351 
L 366.254099 316.576587 
L 367.386404 303.284279 
L 368.518709 313.25351 
L 369.651015 309.930433 
L 370.78332 323.22274 
L 371.915625 319.899663 
L 373.04793 319.899663 
L 374.180235 306.607356 
L 376.444846 319.899663 
L 377.577151 316.576587 
L 378.709456 333.191971 
M 380.974067 336.515048 
L 382.106372 333.191971 
L 383.238677 336.515048 
L 384.370982 329.868894 
L 385.503287 316.576587 
L 386.635593 316.576587 
L 387.767898 323.22274 
L 388.900203 319.899663 
L 390.032508 299.961202 
L 391.164813 289.991971 
L 392.297119 299.961202 
L 393.429424 293.315048 
L 394.561729 276.699663 
L 395.694034 316.576587 
L 396.826339 299.961202 
L 397.958644 319.899663 
L 399.09095 309.930433 
L 400.223255 323.22274 
L 401.35556 306.607356 
L 402.487865 329.868894 
L 403.62017 306.607356 
L 404.752476 323.22274 
L 405.884781 333.191971 
M 408.149391 333.191971 
L 409.281696 339.838125 
L 410.414002 333.191971 
L 411.546307 323.22274 
L 412.678612 329.868894 
L 413.810917 296.638125 
L 414.943222 319.899663 
L 416.075528 316.576587 
L 417.207833 306.607356 
L 418.340138 309.930433 
L 419.472443 296.638125 
L 420.604748 293.315048 
L 422.869359 299.961202 
L 424.001664 319.899663 
L 425.133969 283.345817 
L 426.266274 303.284279 
L 427.39858 296.638125 
L 428.530885 309.930433 
L 429.66319 313.25351 
L 430.795495 333.191971 
L 431.9278 333.191971 
L 433.060106 336.515048 
L 434.192411 329.868894 
M 436.457021 333.191971 
L 437.589326 333.191971 
L 438.721631 339.838125 
L 439.853937 336.515048 
L 440.986242 316.576587 
L 443.250852 316.576587 
L 444.383157 329.868894 
L 445.515463 299.961202 
L 446.647768 309.930433 
L 447.780073 289.991971 
L 448.912378 280.02274 
L 450.044683 326.545817 
L 451.176989 303.284279 
L 452.309294 299.961202 
L 453.441599 303.284279 
L 454.573904 329.868894 
L 455.706209 306.607356 
L 456.838515 326.545817 
L 457.97082 319.899663 
L 459.103125 306.607356 
L 460.23543 336.515048 
L 461.367735 323.22274 
L 462.500041 329.868894 
M 464.764651 329.868894 
L 465.896956 336.515048 
L 467.029261 323.22274 
L 468.161567 326.545817 
L 469.293872 303.284279 
L 470.426177 313.25351 
L 471.558482 306.607356 
L 472.690787 306.607356 
L 474.955398 293.315048 
L 476.087703 263.407356 
L 477.220008 303.284279 
L 478.352313 286.668894 
L 479.484619 303.284279 
L 480.616924 299.961202 
L 481.749229 299.961202 
L 482.881534 296.638125 
L 484.013839 323.22274 
L 485.146144 319.899663 
L 487.410755 319.899663 
L 488.54306 316.576587 
L 489.675365 326.545817 
L 490.80767 333.191971 
L 491.939976 336.515048 
L 493.072281 333.191971 
L 494.204586 336.515048 
L 495.336891 326.545817 
L 496.469196 323.22274 
L 497.601502 316.576587 
L 498.733807 303.284279 
L 499.866112 313.25351 
L 500.998417 303.284279 
L 502.130722 313.25351 
L 503.263028 306.607356 
L 504.395333 319.899663 
L 505.527638 303.284279 
L 506.659943 323.22274 
L 507.792248 270.05351 
L 508.924554 313.25351 
L 510.056859 289.991971 
L 511.189164 319.899663 
L 512.321469 319.899663 
L 513.453774 316.576587 
L 514.58608 336.515048 
L 515.718385 326.545817 
L 517.982995 333.191971 
L 519.1153 333.191971 
L 520.247606 339.838125 
L 521.379911 329.868894 
L 522.512216 339.838125 
L 523.644521 319.899663 
L 524.776826 313.25351 
L 525.909131 329.868894 
L 527.041437 289.991971 
L 528.173742 303.284279 
L 529.306047 313.25351 
L 530.438352 306.607356 
L 531.570657 323.22274 
L 533.835268 316.576587 
L 534.967573 306.607356 
L 536.099878 313.25351 
L 537.232183 326.545817 
L 538.364489 309.930433 
L 539.496794 326.545817 
L 540.629099 316.576587 
L 541.761404 323.22274 
L 542.893709 333.191971 
L 544.026015 326.545817 
L 545.15832 326.545817 
L 546.290625 339.838125 
L 547.42293 339.838125 
L 548.555235 319.899663 
L 549.687541 333.191971 
L 550.819846 329.868894 
L 551.952151 303.284279 
L 553.084456 289.991971 
L 554.216761 293.315048 
L 555.349067 309.930433 
L 556.481372 303.284279 
L 557.613677 323.22274 
L 558.745982 316.576587 
L 561.010593 289.991971 
L 562.142898 313.25351 
L 565.539813 323.22274 
L 566.672119 323.22274 
L 567.804424 326.545817 
L 570.069034 339.838125 
L 571.201339 339.838125 
L 572.333644 319.899663 
L 573.46595 329.868894 
L 574.598255 329.868894 
L 575.73056 339.838125 
L 576.862865 319.899663 
L 577.99517 323.22274 
L 579.127476 299.961202 
L 580.259781 329.868894 
L 581.392086 313.25351 
L 582.524391 313.25351 
L 583.656696 319.899663 
L 584.789002 289.991971 
L 585.921307 316.576587 
L 587.053612 276.699663 
L 588.185917 306.607356 
L 589.318222 319.899663 
L 590.450528 309.930433 
L 591.582833 306.607356 
L 592.715138 316.576587 
L 593.847443 323.22274 
L 594.979748 326.545817 
L 596.112054 333.191971 
L 597.244359 336.515048 
M 599.508969 333.191971 
L 600.641274 339.838125 
L 601.77358 339.838125 
L 602.905885 323.22274 
L 604.03819 283.345817 
L 605.170495 323.22274 
L 606.3028 306.607356 
L 607.435106 309.930433 
L 608.567411 296.638125 
L 609.699716 309.930433 
L 610.832021 303.284279 
L 611.964326 293.315048 
L 613.096631 313.25351 
L 614.228937 326.545817 
L 615.361242 323.22274 
L 617.625852 296.638125 
L 618.758157 296.638125 
L 619.890463 313.25351 
L 621.022768 316.576587 
L 622.155073 326.545817 
L 623.287378 329.868894 
L 624.419683 329.868894 
L 625.551989 336.515048 
L 626.684294 333.191971 
L 627.816599 326.545817 
L 628.948904 336.515048 
L 630.081209 333.191971 
L 631.213515 326.545817 
L 632.34582 316.576587 
L 633.478125 329.868894 
L 635.742735 316.576587 
L 636.875041 299.961202 
L 638.007346 323.22274 
L 639.139651 296.638125 
L 640.271956 299.961202 
L 641.404261 306.607356 
L 642.536567 316.576587 
L 643.668872 286.668894 
L 644.801177 326.545817 
L 647.065787 319.899663 
L 648.198093 329.868894 
L 649.330398 329.868894 
L 650.462703 316.576587 
L 651.595008 326.545817 
L 652.727313 326.545817 
L 654.991924 339.838125 
L 656.124229 339.838125 
L 659.521144 319.899663 
L 660.65345 316.576587 
L 661.785755 326.545817 
L 662.91806 326.545817 
L 664.050365 306.607356 
L 665.18267 319.899663 
L 667.447281 313.25351 
L 668.579586 313.25351 
L 669.711891 316.576587 
L 670.844196 313.25351 
L 671.976502 323.22274 
L 673.108807 309.930433 
L 674.241112 303.284279 
L 676.505722 323.22274 
L 677.638028 326.545817 
L 678.770333 333.191971 
L 679.902638 333.191971 
L 681.034943 339.838125 
L 682.167248 333.191971 
L 684.431859 339.838125 
L 685.564164 319.899663 
L 686.696469 333.191971 
L 687.828774 316.576587 
L 688.96108 293.315048 
L 690.093385 309.930433 
L 691.22569 293.315048 
L 692.357995 316.576587 
L 693.4903 319.899663 
L 695.754911 313.25351 
L 696.887216 306.607356 
L 698.019521 316.576587 
L 699.151826 306.607356 
L 700.284131 309.930433 
L 701.416437 323.22274 
L 702.548742 333.191971 
L 703.681047 336.515048 
M 705.945657 336.515048 
L 707.077963 336.515048 
L 709.342573 323.22274 
L 710.474878 339.838125 
L 711.607183 329.868894 
L 712.739489 329.868894 
L 713.871794 313.25351 
L 715.004099 323.22274 
L 716.136404 319.899663 
L 717.268709 303.284279 
L 718.401015 326.545817 
L 719.53332 286.668894 
L 720.665625 306.607356 
L 721.79793 319.899663 
L 722.930235 326.545817 
L 724.062541 306.607356 
L 725.194846 326.545817 
L 726.327151 296.638125 
L 727.459456 316.576587 
L 728.591761 309.930433 
L 729.724067 309.930433 
L 730.856372 326.545817 
L 731.988677 323.22274 
L 734.253287 336.515048 
L 735.385593 319.899663 
L 736.517898 323.22274 
L 737.650203 323.22274 
L 738.782508 329.868894 
L 739.914813 323.22274 
L 741.047119 326.545817 
L 742.179424 319.899663 
L 743.311729 326.545817 
L 744.444034 323.22274 
L 745.576339 323.22274 
L 746.708644 326.545817 
L 747.84095 319.899663 
L 748.973255 309.930433 
L 750.10556 313.25351 
L 751.237865 303.284279 
L 752.37017 309.930433 
L 753.502476 299.961202 
L 754.634781 309.930433 
L 755.767086 323.22274 
L 756.899391 323.22274 
L 758.031696 333.191971 
L 759.164002 339.838125 
L 760.296307 329.868894 
M 764.825528 333.191971 
L 765.957833 316.576587 
L 767.090138 296.638125 
L 768.222443 303.284279 
L 769.354748 316.576587 
L 770.487054 319.899663 
L 771.619359 293.315048 
L 772.751664 306.607356 
L 773.883969 293.315048 
L 775.016274 303.284279 
L 776.14858 306.607356 
L 777.280885 293.315048 
L 780.6778 293.315048 
L 781.810106 323.22274 
L 782.942411 299.961202 
L 784.074716 329.868894 
L 785.207021 326.545817 
L 786.339326 339.838125 
L 787.471631 326.545817 
L 789.736242 339.838125 
M 792.000852 339.838125 
L 793.133157 319.899663 
L 794.265463 313.25351 
L 795.397768 303.284279 
L 796.530073 296.638125 
L 797.662378 319.899663 
L 798.794683 273.376587 
L 799.926989 313.25351 
L 801.059294 313.25351 
L 802.191599 299.961202 
L 804.456209 306.607356 
L 805.588515 303.284279 
L 806.72082 306.607356 
L 807.853125 299.961202 
L 808.98543 319.899663 
L 810.117735 336.515048 
L 811.250041 313.25351 
L 812.382346 333.191971 
L 813.514651 333.191971 
L 814.646956 329.868894 
L 815.779261 336.515048 
L 816.911567 339.838125 
L 818.043872 333.191971 
L 819.176177 336.515048 
L 820.308482 323.22274 
L 821.440787 286.668894 
L 822.573093 303.284279 
L 823.705398 329.868894 
L 824.837703 319.899663 
L 825.970008 283.345817 
L 827.102313 309.930433 
L 828.234619 303.284279 
L 829.366924 283.345817 
L 830.499229 303.284279 
L 831.631534 296.638125 
L 832.763839 299.961202 
L 833.896144 299.961202 
L 835.02845 289.991971 
L 836.160755 299.961202 
L 837.29306 323.22274 
L 838.425365 329.868894 
L 839.55767 299.961202 
L 839.55767 299.961202 
" clip-path="url(#p9730f5beaf)" style="fill: none; stroke: #2ca02c; stroke-opacity: 0.5; stroke-width: 1.5; stroke-linecap: square"/>
   </g>
   <g id="patch_3">
    <path d="M 40.603125 354.958125 
L 40.603125 22.318125 
" style="fill: none; stroke: #ffffff; stroke-width: 0.8; stroke-linejoin: miter; stroke-linecap: square"/>
   </g>
   <g id="patch_4">
    <path d="M 877.603125 354.958125 
L 877.603125 22.318125 
" style="fill: none; stroke: #000000; stroke-width: 0.8; stroke-linejoin: miter; stroke-linecap: square"/>
   </g>
   <g id="patch_5">
    <path d="M 40.603125 354.958125 
L 877.603125 354.958125 
" style="fill: none; stroke: #ffffff; stroke-width: 0.8; stroke-linejoin: miter; stroke-linecap: square"/>
   </g>
   <g id="patch_6">
    <path d="M 40.603125 22.318125 
L 877.603125 22.318125 
" style="fill: none; stroke: #000000; stroke-width: 0.8; stroke-linejoin: miter; stroke-linecap: square"/>
   </g>
   <g id="text_16">
    <!-- NYC Crime Volume by Severity by Hour in February 2018 -->
    <g style="fill: #ffffff" transform="translate(288.473438 16.318125) scale(0.12 -0.12)">
     <defs>
      <path id="DejaVuSans-4e" d="M 628 4666 
L 1478 4666 
L 3547 763 
L 3547 4666 
L 4159 4666 
L 4159 0 
L 3309 0 
L 1241 3903 
L 1241 0 
L 628 0 
L 628 4666 
z
" transform="scale(0.015625)"/>
      <path id="DejaVuSans-59" d="M -13 4666 
L 666 4666 
L 1959 2747 
L 3244 4666 
L 3922 4666 
L 2272 2222 
L 2272 0 
L 1638 0 
L 1638 2222 
L -13 4666 
z
" transform="scale(0.015625)"/>
      <path id="DejaVuSans-20" transform="scale(0.015625)"/>
      <path id="DejaVuSans-72" d="M 2631 2963 
Q 2534 3019 2420 3045 
Q 2306 3072 2169 3072 
Q 1681 3072 1420 2755 
Q 1159 2438 1159 1844 
L 1159 0 
L 581 0 
L 581 3500 
L 1159 3500 
L 1159 2956 
Q 1341 3275 1631 3429 
Q 1922 3584 2338 3584 
Q 2397 3584 2469 3576 
Q 2541 3569 2628 3553 
L 2631 2963 
z
" transform="scale(0.015625)"/>
      <path id="DejaVuSans-69" d="M 603 3500 
L 1178 3500 
L 1178 0 
L 603 0 
L 603 3500 
z
M 603 4863 
L 1178 4863 
L 1178 4134 
L 603 4134 
L 603 4863 
z
" transform="scale(0.015625)"/>
      <path id="DejaVuSans-6d" d="M 3328 2828 
Q 3544 3216 3844 3400 
Q 4144 3584 4550 3584 
Q 5097 3584 5394 3201 
Q 5691 2819 5691 2113 
L 5691 0 
L 5113 0 
L 5113 2094 
Q 5113 2597 4934 2840 
Q 4756 3084 4391 3084 
Q 3944 3084 3684 2787 
Q 3425 2491 3425 1978 
L 3425 0 
L 2847 0 
L 2847 2094 
Q 2847 2600 2669 2842 
Q 2491 3084 2119 3084 
Q 1678 3084 1418 2786 
Q 1159 2488 1159 1978 
L 1159 0 
L 581 0 
L 581 3500 
L 1159 3500 
L 1159 2956 
Q 1356 3278 1631 3431 
Q 1906 3584 2284 3584 
Q 2666 3584 2933 3390 
Q 3200 3197 3328 2828 
z
" transform="scale(0.015625)"/>
      <path id="DejaVuSans-56" d="M 1831 0 
L 50 4666 
L 709 4666 
L 2188 738 
L 3669 4666 
L 4325 4666 
L 2547 0 
L 1831 0 
z
" transform="scale(0.015625)"/>
      <path id="DejaVuSans-6c" d="M 603 4863 
L 1178 4863 
L 1178 0 
L 603 0 
L 603 4863 
z
" transform="scale(0.015625)"/>
      <path id="DejaVuSans-62" d="M 3116 1747 
Q 3116 2381 2855 2742 
Q 2594 3103 2138 3103 
Q 1681 3103 1420 2742 
Q 1159 2381 1159 1747 
Q 1159 1113 1420 752 
Q 1681 391 2138 391 
Q 2594 391 2855 752 
Q 3116 1113 3116 1747 
z
M 1159 2969 
Q 1341 3281 1617 3432 
Q 1894 3584 2278 3584 
Q 2916 3584 3314 3078 
Q 3713 2572 3713 1747 
Q 3713 922 3314 415 
Q 2916 -91 2278 -91 
Q 1894 -91 1617 61 
Q 1341 213 1159 525 
L 1159 0 
L 581 0 
L 581 4863 
L 1159 4863 
L 1159 2969 
z
" transform="scale(0.015625)"/>
      <path id="DejaVuSans-79" d="M 2059 -325 
Q 1816 -950 1584 -1140 
Q 1353 -1331 966 -1331 
L 506 -1331 
L 506 -850 
L 844 -850 
Q 1081 -850 1212 -737 
Q 1344 -625 1503 -206 
L 1606 56 
L 191 3500 
L 800 3500 
L 1894 763 
L 2988 3500 
L 3597 3500 
L 2059 -325 
z
" transform="scale(0.015625)"/>
      <path id="DejaVuSans-53" d="M 3425 4513 
L 3425 3897 
Q 3066 4069 2747 4153 
Q 2428 4238 2131 4238 
Q 1616 4238 1336 4038 
Q 1056 3838 1056 3469 
Q 1056 3159 1242 3001 
Q 1428 2844 1947 2747 
L 2328 2669 
Q 3034 2534 3370 2195 
Q 3706 1856 3706 1288 
Q 3706 609 3251 259 
Q 2797 -91 1919 -91 
Q 1588 -91 1214 -16 
Q 841 59 441 206 
L 441 856 
Q 825 641 1194 531 
Q 1563 422 1919 422 
Q 2459 422 2753 634 
Q 3047 847 3047 1241 
Q 3047 1584 2836 1778 
Q 2625 1972 2144 2069 
L 1759 2144 
Q 1053 2284 737 2584 
Q 422 2884 422 3419 
Q 422 4038 858 4394 
Q 1294 4750 2059 4750 
Q 2388 4750 2728 4690 
Q 3069 4631 3425 4513 
z
" transform="scale(0.015625)"/>
      <path id="DejaVuSans-76" d="M 191 3500 
L 800 3500 
L 1894 563 
L 2988 3500 
L 3597 3500 
L 2284 0 
L 1503 0 
L 191 3500 
z
" transform="scale(0.015625)"/>
      <path id="DejaVuSans-48" d="M 628 4666 
L 1259 4666 
L 1259 2753 
L 3553 2753 
L 3553 4666 
L 4184 4666 
L 4184 0 
L 3553 0 
L 3553 2222 
L 1259 2222 
L 1259 0 
L 628 0 
L 628 4666 
z
" transform="scale(0.015625)"/>
      <path id="DejaVuSans-46" d="M 628 4666 
L 3309 4666 
L 3309 4134 
L 1259 4134 
L 1259 2759 
L 3109 2759 
L 3109 2228 
L 1259 2228 
L 1259 0 
L 628 0 
L 628 4666 
z
" transform="scale(0.015625)"/>
     </defs>
     <use xlink:href="#DejaVuSans-4e"/>
     <use xlink:href="#DejaVuSans-59" x="74.804688"/>
     <use xlink:href="#DejaVuSans-43" x="130.388672"/>
     <use xlink:href="#DejaVuSans-20" x="200.212891"/>
     <use xlink:href="#DejaVuSans-43" x="232"/>
     <use xlink:href="#DejaVuSans-72" x="301.824219"/>
     <use xlink:href="#DejaVuSans-69" x="342.9375"/>
     <use xlink:href="#DejaVuSans-6d" x="370.720703"/>
     <use xlink:href="#DejaVuSans-65" x="468.132812"/>
     <use xlink:href="#DejaVuSans-20" x="529.65625"/>
     <use xlink:href="#DejaVuSans-56" x="561.443359"/>
     <use xlink:href="#DejaVuSans-6f" x="622.101562"/>
     <use xlink:href="#DejaVuSans-6c" x="683.283203"/>
     <use xlink:href="#DejaVuSans-75" x="711.066406"/>
     <use xlink:href="#DejaVuSans-6d" x="774.445312"/>
     <use xlink:href="#DejaVuSans-65" x="871.857422"/>
     <use xlink:href="#DejaVuSans-20" x="933.380859"/>
     <use xlink:href="#DejaVuSans-62" x="965.167969"/>
     <use xlink:href="#DejaVuSans-79" x="1028.644531"/>
     <use xlink:href="#DejaVuSans-20" x="1087.824219"/>
     <use xlink:href="#DejaVuSans-53" x="1119.611328"/>
     <use xlink:href="#DejaVuSans-65" x="1183.087891"/>
     <use xlink:href="#DejaVuSans-76" x="1244.611328"/>
     <use xlink:href="#DejaVuSans-65" x="1303.791016"/>
     <use xlink:href="#DejaVuSans-72" x="1365.314453"/>
     <use xlink:href="#DejaVuSans-69" x="1406.427734"/>
     <use xlink:href="#DejaVuSans-74" x="1434.210938"/>
     <use xlink:href="#DejaVuSans-79" x="1473.419922"/>
     <use xlink:href="#DejaVuSans-20" x="1532.599609"/>
     <use xlink:href="#DejaVuSans-62" x="1564.386719"/>
     <use xlink:href="#DejaVuSans-79" x="1627.863281"/>
     <use xlink:href="#DejaVuSans-20" x="1687.042969"/>
     <use xlink:href="#DejaVuSans-48" x="1718.830078"/>
     <use xlink:href="#DejaVuSans-6f" x="1794.025391"/>
     <use xlink:href="#DejaVuSans-75" x="1855.207031"/>
     <use xlink:href="#DejaVuSans-72" x="1918.585938"/>
     <use xlink:href="#DejaVuSans-20" x="1959.699219"/>
     <use xlink:href="#DejaVuSans-69" x="1991.486328"/>
     <use xlink:href="#DejaVuSans-6e" x="2019.269531"/>
     <use xlink:href="#DejaVuSans-20" x="2082.648438"/>
     <use xlink:href="#DejaVuSans-46" x="2114.435547"/>
     <use xlink:href="#DejaVuSans-65" x="2166.455078"/>
     <use xlink:href="#DejaVuSans-62" x="2227.978516"/>
     <use xlink:href="#DejaVuSans-72" x="2291.455078"/>
     <use xlink:href="#DejaVuSans-75" x="2332.568359"/>
     <use xlink:href="#DejaVuSans-61" x="2395.947266"/>
     <use xlink:href="#DejaVuSans-72" x="2457.226562"/>
     <use xlink:href="#DejaVuSans-79" x="2498.339844"/>
     <use xlink:href="#DejaVuSans-20" x="2557.519531"/>
     <use xlink:href="#DejaVuSans-32" x="2589.306641"/>
     <use xlink:href="#DejaVuSans-30" x="2652.929688"/>
     <use xlink:href="#DejaVuSans-31" x="2716.552734"/>
     <use xlink:href="#DejaVuSans-38" x="2780.175781"/>
    </g>
   </g>
   <g id="legend_1">
    <g id="patch_7">
     <path d="M 884.603125 89.030625 
L 992.6375 89.030625 
Q 994.6375 89.030625 994.6375 87.030625 
L 994.6375 29.318125 
Q 994.6375 27.318125 992.6375 27.318125 
L 884.603125 27.318125 
Q 882.603125 27.318125 882.603125 29.318125 
L 882.603125 87.030625 
Q 882.603125 89.030625 884.603125 89.030625 
z
" style="fill: #ffffff; opacity: 0.8; stroke: #cccccc; stroke-linejoin: miter"/>
    </g>
    <g id="text_17">
     <!-- Legal Class -->
     <g transform="translate(910.475 38.916562) scale(0.1 -0.1)">
      <defs>
       <path id="DejaVuSans-4c" d="M 628 4666 
L 1259 4666 
L 1259 531 
L 3531 531 
L 3531 0 
L 628 0 
L 628 4666 
z
" transform="scale(0.015625)"/>
       <path id="DejaVuSans-67" d="M 2906 1791 
Q 2906 2416 2648 2759 
Q 2391 3103 1925 3103 
Q 1463 3103 1205 2759 
Q 947 2416 947 1791 
Q 947 1169 1205 825 
Q 1463 481 1925 481 
Q 2391 481 2648 825 
Q 2906 1169 2906 1791 
z
M 3481 434 
Q 3481 -459 3084 -895 
Q 2688 -1331 1869 -1331 
Q 1566 -1331 1297 -1286 
Q 1028 -1241 775 -1147 
L 775 -588 
Q 1028 -725 1275 -790 
Q 1522 -856 1778 -856 
Q 2344 -856 2625 -561 
Q 2906 -266 2906 331 
L 2906 616 
Q 2728 306 2450 153 
Q 2172 0 1784 0 
Q 1141 0 747 490 
Q 353 981 353 1791 
Q 353 2603 747 3093 
Q 1141 3584 1784 3584 
Q 2172 3584 2450 3431 
Q 2728 3278 2906 2969 
L 2906 3500 
L 3481 3500 
L 3481 434 
z
" transform="scale(0.015625)"/>
       <path id="DejaVuSans-73" d="M 2834 3397 
L 2834 2853 
Q 2591 2978 2328 3040 
Q 2066 3103 1784 3103 
Q 1356 3103 1142 2972 
Q 928 2841 928 2578 
Q 928 2378 1081 2264 
Q 1234 2150 1697 2047 
L 1894 2003 
Q 2506 1872 2764 1633 
Q 3022 1394 3022 966 
Q 3022 478 2636 193 
Q 2250 -91 1575 -91 
Q 1294 -91 989 -36 
Q 684 19 347 128 
L 347 722 
Q 666 556 975 473 
Q 1284 391 1588 391 
Q 1994 391 2212 530 
Q 2431 669 2431 922 
Q 2431 1156 2273 1281 
Q 2116 1406 1581 1522 
L 1381 1569 
Q 847 1681 609 1914 
Q 372 2147 372 2553 
Q 372 3047 722 3315 
Q 1072 3584 1716 3584 
Q 2034 3584 2315 3537 
Q 2597 3491 2834 3397 
z
" transform="scale(0.015625)"/>
      </defs>
      <use xlink:href="#DejaVuSans-4c"/>
      <use xlink:href="#DejaVuSans-65" x="53.962891"/>
      <use xlink:href="#DejaVuSans-67" x="115.486328"/>
      <use xlink:href="#DejaVuSans-61" x="178.962891"/>
      <use xlink:href="#DejaVuSans-6c" x="240.242188"/>
      <use xlink:href="#DejaVuSans-20" x="268.025391"/>
      <use xlink:href="#DejaVuSans-43" x="299.8125"/>
      <use xlink:href="#DejaVuSans-6c" x="369.636719"/>
      <use xlink:href="#DejaVuSans-61" x="397.419922"/>
      <use xlink:href="#DejaVuSans-73" x="458.699219"/>
      <use xlink:href="#DejaVuSans-73" x="510.798828"/>
     </g>
    </g>
    <g id="line2d_17">
     <path d="M 886.603125 50.094688 
L 896.603125 50.094688 
L 906.603125 50.094688 
" style="fill: none; stroke: #1f77b4; stroke-opacity: 0.5; stroke-width: 1.5; stroke-linecap: square"/>
    </g>
    <g id="text_18">
     <!-- FELONY -->
     <g transform="translate(914.603125 53.594688) scale(0.1 -0.1)">
      <defs>
       <path id="DejaVuSans-45" d="M 628 4666 
L 3578 4666 
L 3578 4134 
L 1259 4134 
L 1259 2753 
L 3481 2753 
L 3481 2222 
L 1259 2222 
L 1259 531 
L 3634 531 
L 3634 0 
L 628 0 
L 628 4666 
z
" transform="scale(0.015625)"/>
       <path id="DejaVuSans-4f" d="M 2522 4238 
Q 1834 4238 1429 3725 
Q 1025 3213 1025 2328 
Q 1025 1447 1429 934 
Q 1834 422 2522 422 
Q 3209 422 3611 934 
Q 4013 1447 4013 2328 
Q 4013 3213 3611 3725 
Q 3209 4238 2522 4238 
z
M 2522 4750 
Q 3503 4750 4090 4092 
Q 4678 3434 4678 2328 
Q 4678 1225 4090 567 
Q 3503 -91 2522 -91 
Q 1538 -91 948 565 
Q 359 1222 359 2328 
Q 359 3434 948 4092 
Q 1538 4750 2522 4750 
z
" transform="scale(0.015625)"/>
      </defs>
      <use xlink:href="#DejaVuSans-46"/>
      <use xlink:href="#DejaVuSans-45" x="57.519531"/>
      <use xlink:href="#DejaVuSans-4c" x="120.703125"/>
      <use xlink:href="#DejaVuSans-4f" x="172.791016"/>
      <use xlink:href="#DejaVuSans-4e" x="251.501953"/>
      <use xlink:href="#DejaVuSans-59" x="326.306641"/>
     </g>
    </g>
    <g id="line2d_18">
     <path d="M 886.603125 64.772813 
L 896.603125 64.772813 
L 906.603125 64.772813 
" style="fill: none; stroke: #ff7f0e; stroke-opacity: 0.5; stroke-width: 1.5; stroke-linecap: square"/>
    </g>
    <g id="text_19">
     <!-- MISDEMEANOR -->
     <g transform="translate(914.603125 68.272813) scale(0.1 -0.1)">
      <defs>
       <path id="DejaVuSans-4d" d="M 628 4666 
L 1569 4666 
L 2759 1491 
L 3956 4666 
L 4897 4666 
L 4897 0 
L 4281 0 
L 4281 4097 
L 3078 897 
L 2444 897 
L 1241 4097 
L 1241 0 
L 628 0 
L 628 4666 
z
" transform="scale(0.015625)"/>
       <path id="DejaVuSans-49" d="M 628 4666 
L 1259 4666 
L 1259 0 
L 628 0 
L 628 4666 
z
" transform="scale(0.015625)"/>
       <path id="DejaVuSans-41" d="M 2188 4044 
L 1331 1722 
L 3047 1722 
L 2188 4044 
z
M 1831 4666 
L 2547 4666 
L 4325 0 
L 3669 0 
L 3244 1197 
L 1141 1197 
L 716 0 
L 50 0 
L 1831 4666 
z
" transform="scale(0.015625)"/>
       <path id="DejaVuSans-52" d="M 2841 2188 
Q 3044 2119 3236 1894 
Q 3428 1669 3622 1275 
L 4263 0 
L 3584 0 
L 2988 1197 
Q 2756 1666 2539 1819 
Q 2322 1972 1947 1972 
L 1259 1972 
L 1259 0 
L 628 0 
L 628 4666 
L 2053 4666 
Q 2853 4666 3247 4331 
Q 3641 3997 3641 3322 
Q 3641 2881 3436 2590 
Q 3231 2300 2841 2188 
z
M 1259 4147 
L 1259 2491 
L 2053 2491 
Q 2509 2491 2742 2702 
Q 2975 2913 2975 3322 
Q 2975 3731 2742 3939 
Q 2509 4147 2053 4147 
L 1259 4147 
z
" transform="scale(0.015625)"/>
      </defs>
      <use xlink:href="#DejaVuSans-4d"/>
      <use xlink:href="#DejaVuSans-49" x="86.279297"/>
      <use xlink:href="#DejaVuSans-53" x="115.771484"/>
      <use xlink:href="#DejaVuSans-44" x="179.248047"/>
      <use xlink:href="#DejaVuSans-45" x="256.25"/>
      <use xlink:href="#DejaVuSans-4d" x="319.433594"/>
      <use xlink:href="#DejaVuSans-45" x="405.712891"/>
      <use xlink:href="#DejaVuSans-41" x="468.896484"/>
      <use xlink:href="#DejaVuSans-4e" x="537.304688"/>
      <use xlink:href="#DejaVuSans-4f" x="612.109375"/>
      <use xlink:href="#DejaVuSans-52" x="690.820312"/>
     </g>
    </g>
    <g id="line2d_19">
     <path d="M 886.603125 79.450938 
L 896.603125 79.450938 
L 906.603125 79.450938 
" style="fill: none; stroke: #2ca02c; stroke-opacity: 0.5; stroke-width: 1.5; stroke-linecap: square"/>
    </g>
    <g id="text_20">
     <!-- VIOLATION -->
     <g transform="translate(914.603125 82.950938) scale(0.1 -0.1)">
      <defs>
       <path id="DejaVuSans-54" d="M -19 4666 
L 3928 4666 
L 3928 4134 
L 2272 4134 
L 2272 0 
L 1638 0 
L 1638 4134 
L -19 4134 
L -19 4666 
z
" transform="scale(0.015625)"/>
      </defs>
      <use xlink:href="#DejaVuSans-56"/>
      <use xlink:href="#DejaVuSans-49" x="68.408203"/>
      <use xlink:href="#DejaVuSans-4f" x="97.900391"/>
      <use xlink:href="#DejaVuSans-4c" x="176.611328"/>
      <use xlink:href="#DejaVuSans-41" x="234.574219"/>
      <use xlink:href="#DejaVuSans-54" x="295.232422"/>
      <use xlink:href="#DejaVuSans-49" x="356.316406"/>
      <use xlink:href="#DejaVuSans-4f" x="385.808594"/>
      <use xlink:href="#DejaVuSans-4e" x="464.519531"/>
     </g>
    </g>
   </g>
  </g>
 </g>
 <defs>
  <clipPath id="p9730f5beaf">
   <rect x="40.603125" y="22.318125" width="837" height="332.64"/>
  </clipPath>
 </defs>
</svg>
